M48
; DRILL file {KiCad 5.1.4-e60b266~84~ubuntu18.04.1} date Wed 04 Sep 2019 05:21:45 PM BST
; FORMAT={-:-/ absolute / inch / decimal}
; #@! TF.CreationDate,2019-09-04T17:21:45+01:00
; #@! TF.GenerationSoftware,Kicad,Pcbnew,5.1.4-e60b266~84~ubuntu18.04.1
; #@! TF.FileFunction,Plated,1,2,PTH
FMAT,2
INCH
T1C0.0157
T2C0.0300
T3C0.0394
%
G90
G05
T1
X4.8913Y-3.7662
X4.892Y-3.947
X4.94Y-3.6564
X4.9707Y-4.1332
X5.0236Y-3.8108
X5.0297Y-4.2063
X5.062Y-4.1016
X5.0699Y-3.6843
X5.0708Y-4.0164
X5.0752Y-3.5664
X5.1207Y-4.1505
X5.1335Y-3.508
X5.5349Y-3.4659
X5.5995Y-3.4421
T2
X5.126Y-3.5693
X5.126Y-3.6394
X5.126Y-3.7094
X5.126Y-3.7795
X5.126Y-3.8496
X5.126Y-3.9197
X5.126Y-3.9898
X5.126Y-4.0598
X5.5472Y-3.6043
X5.5472Y-3.6744
X5.5472Y-3.7445
X5.5472Y-3.8146
X5.5472Y-3.8846
X5.5472Y-3.9547
X5.5472Y-4.0248
X5.5472Y-4.0949
T3
X5.6673Y-3.4742
X5.6673Y-3.5742
X5.6673Y-3.6742
X5.6673Y-3.7742
X5.6673Y-3.8742
X5.6673Y-3.9742
X5.6673Y-4.0742
X5.6673Y-4.1742
T0
M30
