G04 #@! TF.GenerationSoftware,KiCad,Pcbnew,5.1.4-e60b266~84~ubuntu18.04.1*
G04 #@! TF.CreationDate,2019-09-04T17:21:52+01:00*
G04 #@! TF.ProjectId,optical_sensor_daughter_board,6f707469-6361-46c5-9f73-656e736f725f,rev?*
G04 #@! TF.SameCoordinates,Original*
G04 #@! TF.FileFunction,Copper,L1,Top*
G04 #@! TF.FilePolarity,Positive*
%FSLAX46Y46*%
G04 Gerber Fmt 4.6, Leading zero omitted, Abs format (unit mm)*
G04 Created by KiCad (PCBNEW 5.1.4-e60b266~84~ubuntu18.04.1) date 2019-09-04 17:21:52*
%MOMM*%
%LPD*%
G04 APERTURE LIST*
%ADD10R,1.060000X0.650000*%
%ADD11C,1.150000*%
%ADD12C,0.100000*%
%ADD13C,0.950000*%
%ADD14O,1.700000X1.700000*%
%ADD15R,1.700000X1.700000*%
%ADD16C,0.800000*%
%ADD17C,0.250000*%
G04 APERTURE END LIST*
D10*
X127675000Y-90975000D03*
X127675000Y-90025000D03*
X127675000Y-91925000D03*
X125475000Y-91925000D03*
X125475000Y-90975000D03*
X125475000Y-90025000D03*
X127600000Y-102475000D03*
X127600000Y-101525000D03*
X127600000Y-103425000D03*
X125400000Y-103425000D03*
X125400000Y-102475000D03*
X125400000Y-101525000D03*
X127600000Y-98675000D03*
X127600000Y-97725000D03*
X127600000Y-99625000D03*
X125400000Y-99625000D03*
X125400000Y-98675000D03*
X125400000Y-97725000D03*
X127625000Y-94825000D03*
X127625000Y-93875000D03*
X127625000Y-95775000D03*
X125425000Y-95775000D03*
X125425000Y-94825000D03*
X125425000Y-93875000D03*
X127700000Y-87200000D03*
X127700000Y-86250000D03*
X127700000Y-88150000D03*
X125500000Y-88150000D03*
X125500000Y-87200000D03*
X125500000Y-86250000D03*
D11*
X130200000Y-90660000D03*
X140900000Y-91550000D03*
X130200000Y-92440000D03*
X140900000Y-93330000D03*
X130200000Y-94220000D03*
X140900000Y-95110000D03*
X130200000Y-96000000D03*
X140900000Y-96890000D03*
X130200000Y-97780000D03*
X140900000Y-98670000D03*
X130200000Y-99560000D03*
X140900000Y-100450000D03*
X130200000Y-101340000D03*
X140900000Y-102230000D03*
X130200000Y-103120000D03*
X140900000Y-104010000D03*
D10*
X139250000Y-110125000D03*
X139250000Y-108225000D03*
X141450000Y-108225000D03*
X141450000Y-109175000D03*
X141450000Y-110125000D03*
D12*
G36*
X127835779Y-108776144D02*
G01*
X127858834Y-108779563D01*
X127881443Y-108785227D01*
X127903387Y-108793079D01*
X127924457Y-108803044D01*
X127944448Y-108815026D01*
X127963168Y-108828910D01*
X127980438Y-108844562D01*
X127996090Y-108861832D01*
X128009974Y-108880552D01*
X128021956Y-108900543D01*
X128031921Y-108921613D01*
X128039773Y-108943557D01*
X128045437Y-108966166D01*
X128048856Y-108989221D01*
X128050000Y-109012500D01*
X128050000Y-109487500D01*
X128048856Y-109510779D01*
X128045437Y-109533834D01*
X128039773Y-109556443D01*
X128031921Y-109578387D01*
X128021956Y-109599457D01*
X128009974Y-109619448D01*
X127996090Y-109638168D01*
X127980438Y-109655438D01*
X127963168Y-109671090D01*
X127944448Y-109684974D01*
X127924457Y-109696956D01*
X127903387Y-109706921D01*
X127881443Y-109714773D01*
X127858834Y-109720437D01*
X127835779Y-109723856D01*
X127812500Y-109725000D01*
X127237500Y-109725000D01*
X127214221Y-109723856D01*
X127191166Y-109720437D01*
X127168557Y-109714773D01*
X127146613Y-109706921D01*
X127125543Y-109696956D01*
X127105552Y-109684974D01*
X127086832Y-109671090D01*
X127069562Y-109655438D01*
X127053910Y-109638168D01*
X127040026Y-109619448D01*
X127028044Y-109599457D01*
X127018079Y-109578387D01*
X127010227Y-109556443D01*
X127004563Y-109533834D01*
X127001144Y-109510779D01*
X127000000Y-109487500D01*
X127000000Y-109012500D01*
X127001144Y-108989221D01*
X127004563Y-108966166D01*
X127010227Y-108943557D01*
X127018079Y-108921613D01*
X127028044Y-108900543D01*
X127040026Y-108880552D01*
X127053910Y-108861832D01*
X127069562Y-108844562D01*
X127086832Y-108828910D01*
X127105552Y-108815026D01*
X127125543Y-108803044D01*
X127146613Y-108793079D01*
X127168557Y-108785227D01*
X127191166Y-108779563D01*
X127214221Y-108776144D01*
X127237500Y-108775000D01*
X127812500Y-108775000D01*
X127835779Y-108776144D01*
X127835779Y-108776144D01*
G37*
D13*
X127525000Y-109250000D03*
D12*
G36*
X126085779Y-108776144D02*
G01*
X126108834Y-108779563D01*
X126131443Y-108785227D01*
X126153387Y-108793079D01*
X126174457Y-108803044D01*
X126194448Y-108815026D01*
X126213168Y-108828910D01*
X126230438Y-108844562D01*
X126246090Y-108861832D01*
X126259974Y-108880552D01*
X126271956Y-108900543D01*
X126281921Y-108921613D01*
X126289773Y-108943557D01*
X126295437Y-108966166D01*
X126298856Y-108989221D01*
X126300000Y-109012500D01*
X126300000Y-109487500D01*
X126298856Y-109510779D01*
X126295437Y-109533834D01*
X126289773Y-109556443D01*
X126281921Y-109578387D01*
X126271956Y-109599457D01*
X126259974Y-109619448D01*
X126246090Y-109638168D01*
X126230438Y-109655438D01*
X126213168Y-109671090D01*
X126194448Y-109684974D01*
X126174457Y-109696956D01*
X126153387Y-109706921D01*
X126131443Y-109714773D01*
X126108834Y-109720437D01*
X126085779Y-109723856D01*
X126062500Y-109725000D01*
X125487500Y-109725000D01*
X125464221Y-109723856D01*
X125441166Y-109720437D01*
X125418557Y-109714773D01*
X125396613Y-109706921D01*
X125375543Y-109696956D01*
X125355552Y-109684974D01*
X125336832Y-109671090D01*
X125319562Y-109655438D01*
X125303910Y-109638168D01*
X125290026Y-109619448D01*
X125278044Y-109599457D01*
X125268079Y-109578387D01*
X125260227Y-109556443D01*
X125254563Y-109533834D01*
X125251144Y-109510779D01*
X125250000Y-109487500D01*
X125250000Y-109012500D01*
X125251144Y-108989221D01*
X125254563Y-108966166D01*
X125260227Y-108943557D01*
X125268079Y-108921613D01*
X125278044Y-108900543D01*
X125290026Y-108880552D01*
X125303910Y-108861832D01*
X125319562Y-108844562D01*
X125336832Y-108828910D01*
X125355552Y-108815026D01*
X125375543Y-108803044D01*
X125396613Y-108793079D01*
X125418557Y-108785227D01*
X125441166Y-108779563D01*
X125464221Y-108776144D01*
X125487500Y-108775000D01*
X126062500Y-108775000D01*
X126085779Y-108776144D01*
X126085779Y-108776144D01*
G37*
D13*
X125775000Y-109250000D03*
D12*
G36*
X141610779Y-85576144D02*
G01*
X141633834Y-85579563D01*
X141656443Y-85585227D01*
X141678387Y-85593079D01*
X141699457Y-85603044D01*
X141719448Y-85615026D01*
X141738168Y-85628910D01*
X141755438Y-85644562D01*
X141771090Y-85661832D01*
X141784974Y-85680552D01*
X141796956Y-85700543D01*
X141806921Y-85721613D01*
X141814773Y-85743557D01*
X141820437Y-85766166D01*
X141823856Y-85789221D01*
X141825000Y-85812500D01*
X141825000Y-86387500D01*
X141823856Y-86410779D01*
X141820437Y-86433834D01*
X141814773Y-86456443D01*
X141806921Y-86478387D01*
X141796956Y-86499457D01*
X141784974Y-86519448D01*
X141771090Y-86538168D01*
X141755438Y-86555438D01*
X141738168Y-86571090D01*
X141719448Y-86584974D01*
X141699457Y-86596956D01*
X141678387Y-86606921D01*
X141656443Y-86614773D01*
X141633834Y-86620437D01*
X141610779Y-86623856D01*
X141587500Y-86625000D01*
X141112500Y-86625000D01*
X141089221Y-86623856D01*
X141066166Y-86620437D01*
X141043557Y-86614773D01*
X141021613Y-86606921D01*
X141000543Y-86596956D01*
X140980552Y-86584974D01*
X140961832Y-86571090D01*
X140944562Y-86555438D01*
X140928910Y-86538168D01*
X140915026Y-86519448D01*
X140903044Y-86499457D01*
X140893079Y-86478387D01*
X140885227Y-86456443D01*
X140879563Y-86433834D01*
X140876144Y-86410779D01*
X140875000Y-86387500D01*
X140875000Y-85812500D01*
X140876144Y-85789221D01*
X140879563Y-85766166D01*
X140885227Y-85743557D01*
X140893079Y-85721613D01*
X140903044Y-85700543D01*
X140915026Y-85680552D01*
X140928910Y-85661832D01*
X140944562Y-85644562D01*
X140961832Y-85628910D01*
X140980552Y-85615026D01*
X141000543Y-85603044D01*
X141021613Y-85593079D01*
X141043557Y-85585227D01*
X141066166Y-85579563D01*
X141089221Y-85576144D01*
X141112500Y-85575000D01*
X141587500Y-85575000D01*
X141610779Y-85576144D01*
X141610779Y-85576144D01*
G37*
D13*
X141350000Y-86100000D03*
D12*
G36*
X141610779Y-83826144D02*
G01*
X141633834Y-83829563D01*
X141656443Y-83835227D01*
X141678387Y-83843079D01*
X141699457Y-83853044D01*
X141719448Y-83865026D01*
X141738168Y-83878910D01*
X141755438Y-83894562D01*
X141771090Y-83911832D01*
X141784974Y-83930552D01*
X141796956Y-83950543D01*
X141806921Y-83971613D01*
X141814773Y-83993557D01*
X141820437Y-84016166D01*
X141823856Y-84039221D01*
X141825000Y-84062500D01*
X141825000Y-84637500D01*
X141823856Y-84660779D01*
X141820437Y-84683834D01*
X141814773Y-84706443D01*
X141806921Y-84728387D01*
X141796956Y-84749457D01*
X141784974Y-84769448D01*
X141771090Y-84788168D01*
X141755438Y-84805438D01*
X141738168Y-84821090D01*
X141719448Y-84834974D01*
X141699457Y-84846956D01*
X141678387Y-84856921D01*
X141656443Y-84864773D01*
X141633834Y-84870437D01*
X141610779Y-84873856D01*
X141587500Y-84875000D01*
X141112500Y-84875000D01*
X141089221Y-84873856D01*
X141066166Y-84870437D01*
X141043557Y-84864773D01*
X141021613Y-84856921D01*
X141000543Y-84846956D01*
X140980552Y-84834974D01*
X140961832Y-84821090D01*
X140944562Y-84805438D01*
X140928910Y-84788168D01*
X140915026Y-84769448D01*
X140903044Y-84749457D01*
X140893079Y-84728387D01*
X140885227Y-84706443D01*
X140879563Y-84683834D01*
X140876144Y-84660779D01*
X140875000Y-84637500D01*
X140875000Y-84062500D01*
X140876144Y-84039221D01*
X140879563Y-84016166D01*
X140885227Y-83993557D01*
X140893079Y-83971613D01*
X140903044Y-83950543D01*
X140915026Y-83930552D01*
X140928910Y-83911832D01*
X140944562Y-83894562D01*
X140961832Y-83878910D01*
X140980552Y-83865026D01*
X141000543Y-83853044D01*
X141021613Y-83843079D01*
X141043557Y-83835227D01*
X141066166Y-83829563D01*
X141089221Y-83826144D01*
X141112500Y-83825000D01*
X141587500Y-83825000D01*
X141610779Y-83826144D01*
X141610779Y-83826144D01*
G37*
D13*
X141350000Y-84350000D03*
D14*
X143950000Y-88245000D03*
X143950000Y-90785000D03*
X143950000Y-93325000D03*
X143950000Y-95865000D03*
X143950000Y-98405000D03*
X143950000Y-100945000D03*
X143950000Y-103485000D03*
D15*
X143950000Y-106025000D03*
D12*
G36*
X131560779Y-108701144D02*
G01*
X131583834Y-108704563D01*
X131606443Y-108710227D01*
X131628387Y-108718079D01*
X131649457Y-108728044D01*
X131669448Y-108740026D01*
X131688168Y-108753910D01*
X131705438Y-108769562D01*
X131721090Y-108786832D01*
X131734974Y-108805552D01*
X131746956Y-108825543D01*
X131756921Y-108846613D01*
X131764773Y-108868557D01*
X131770437Y-108891166D01*
X131773856Y-108914221D01*
X131775000Y-108937500D01*
X131775000Y-109412500D01*
X131773856Y-109435779D01*
X131770437Y-109458834D01*
X131764773Y-109481443D01*
X131756921Y-109503387D01*
X131746956Y-109524457D01*
X131734974Y-109544448D01*
X131721090Y-109563168D01*
X131705438Y-109580438D01*
X131688168Y-109596090D01*
X131669448Y-109609974D01*
X131649457Y-109621956D01*
X131628387Y-109631921D01*
X131606443Y-109639773D01*
X131583834Y-109645437D01*
X131560779Y-109648856D01*
X131537500Y-109650000D01*
X130962500Y-109650000D01*
X130939221Y-109648856D01*
X130916166Y-109645437D01*
X130893557Y-109639773D01*
X130871613Y-109631921D01*
X130850543Y-109621956D01*
X130830552Y-109609974D01*
X130811832Y-109596090D01*
X130794562Y-109580438D01*
X130778910Y-109563168D01*
X130765026Y-109544448D01*
X130753044Y-109524457D01*
X130743079Y-109503387D01*
X130735227Y-109481443D01*
X130729563Y-109458834D01*
X130726144Y-109435779D01*
X130725000Y-109412500D01*
X130725000Y-108937500D01*
X130726144Y-108914221D01*
X130729563Y-108891166D01*
X130735227Y-108868557D01*
X130743079Y-108846613D01*
X130753044Y-108825543D01*
X130765026Y-108805552D01*
X130778910Y-108786832D01*
X130794562Y-108769562D01*
X130811832Y-108753910D01*
X130830552Y-108740026D01*
X130850543Y-108728044D01*
X130871613Y-108718079D01*
X130893557Y-108710227D01*
X130916166Y-108704563D01*
X130939221Y-108701144D01*
X130962500Y-108700000D01*
X131537500Y-108700000D01*
X131560779Y-108701144D01*
X131560779Y-108701144D01*
G37*
D13*
X131250000Y-109175000D03*
D12*
G36*
X129810779Y-108701144D02*
G01*
X129833834Y-108704563D01*
X129856443Y-108710227D01*
X129878387Y-108718079D01*
X129899457Y-108728044D01*
X129919448Y-108740026D01*
X129938168Y-108753910D01*
X129955438Y-108769562D01*
X129971090Y-108786832D01*
X129984974Y-108805552D01*
X129996956Y-108825543D01*
X130006921Y-108846613D01*
X130014773Y-108868557D01*
X130020437Y-108891166D01*
X130023856Y-108914221D01*
X130025000Y-108937500D01*
X130025000Y-109412500D01*
X130023856Y-109435779D01*
X130020437Y-109458834D01*
X130014773Y-109481443D01*
X130006921Y-109503387D01*
X129996956Y-109524457D01*
X129984974Y-109544448D01*
X129971090Y-109563168D01*
X129955438Y-109580438D01*
X129938168Y-109596090D01*
X129919448Y-109609974D01*
X129899457Y-109621956D01*
X129878387Y-109631921D01*
X129856443Y-109639773D01*
X129833834Y-109645437D01*
X129810779Y-109648856D01*
X129787500Y-109650000D01*
X129212500Y-109650000D01*
X129189221Y-109648856D01*
X129166166Y-109645437D01*
X129143557Y-109639773D01*
X129121613Y-109631921D01*
X129100543Y-109621956D01*
X129080552Y-109609974D01*
X129061832Y-109596090D01*
X129044562Y-109580438D01*
X129028910Y-109563168D01*
X129015026Y-109544448D01*
X129003044Y-109524457D01*
X128993079Y-109503387D01*
X128985227Y-109481443D01*
X128979563Y-109458834D01*
X128976144Y-109435779D01*
X128975000Y-109412500D01*
X128975000Y-108937500D01*
X128976144Y-108914221D01*
X128979563Y-108891166D01*
X128985227Y-108868557D01*
X128993079Y-108846613D01*
X129003044Y-108825543D01*
X129015026Y-108805552D01*
X129028910Y-108786832D01*
X129044562Y-108769562D01*
X129061832Y-108753910D01*
X129080552Y-108740026D01*
X129100543Y-108728044D01*
X129121613Y-108718079D01*
X129143557Y-108710227D01*
X129166166Y-108704563D01*
X129189221Y-108701144D01*
X129212500Y-108700000D01*
X129787500Y-108700000D01*
X129810779Y-108701144D01*
X129810779Y-108701144D01*
G37*
D13*
X129500000Y-109175000D03*
D12*
G36*
X145460779Y-109576144D02*
G01*
X145483834Y-109579563D01*
X145506443Y-109585227D01*
X145528387Y-109593079D01*
X145549457Y-109603044D01*
X145569448Y-109615026D01*
X145588168Y-109628910D01*
X145605438Y-109644562D01*
X145621090Y-109661832D01*
X145634974Y-109680552D01*
X145646956Y-109700543D01*
X145656921Y-109721613D01*
X145664773Y-109743557D01*
X145670437Y-109766166D01*
X145673856Y-109789221D01*
X145675000Y-109812500D01*
X145675000Y-110287500D01*
X145673856Y-110310779D01*
X145670437Y-110333834D01*
X145664773Y-110356443D01*
X145656921Y-110378387D01*
X145646956Y-110399457D01*
X145634974Y-110419448D01*
X145621090Y-110438168D01*
X145605438Y-110455438D01*
X145588168Y-110471090D01*
X145569448Y-110484974D01*
X145549457Y-110496956D01*
X145528387Y-110506921D01*
X145506443Y-110514773D01*
X145483834Y-110520437D01*
X145460779Y-110523856D01*
X145437500Y-110525000D01*
X144862500Y-110525000D01*
X144839221Y-110523856D01*
X144816166Y-110520437D01*
X144793557Y-110514773D01*
X144771613Y-110506921D01*
X144750543Y-110496956D01*
X144730552Y-110484974D01*
X144711832Y-110471090D01*
X144694562Y-110455438D01*
X144678910Y-110438168D01*
X144665026Y-110419448D01*
X144653044Y-110399457D01*
X144643079Y-110378387D01*
X144635227Y-110356443D01*
X144629563Y-110333834D01*
X144626144Y-110310779D01*
X144625000Y-110287500D01*
X144625000Y-109812500D01*
X144626144Y-109789221D01*
X144629563Y-109766166D01*
X144635227Y-109743557D01*
X144643079Y-109721613D01*
X144653044Y-109700543D01*
X144665026Y-109680552D01*
X144678910Y-109661832D01*
X144694562Y-109644562D01*
X144711832Y-109628910D01*
X144730552Y-109615026D01*
X144750543Y-109603044D01*
X144771613Y-109593079D01*
X144793557Y-109585227D01*
X144816166Y-109579563D01*
X144839221Y-109576144D01*
X144862500Y-109575000D01*
X145437500Y-109575000D01*
X145460779Y-109576144D01*
X145460779Y-109576144D01*
G37*
D13*
X145150000Y-110050000D03*
D12*
G36*
X143710779Y-109576144D02*
G01*
X143733834Y-109579563D01*
X143756443Y-109585227D01*
X143778387Y-109593079D01*
X143799457Y-109603044D01*
X143819448Y-109615026D01*
X143838168Y-109628910D01*
X143855438Y-109644562D01*
X143871090Y-109661832D01*
X143884974Y-109680552D01*
X143896956Y-109700543D01*
X143906921Y-109721613D01*
X143914773Y-109743557D01*
X143920437Y-109766166D01*
X143923856Y-109789221D01*
X143925000Y-109812500D01*
X143925000Y-110287500D01*
X143923856Y-110310779D01*
X143920437Y-110333834D01*
X143914773Y-110356443D01*
X143906921Y-110378387D01*
X143896956Y-110399457D01*
X143884974Y-110419448D01*
X143871090Y-110438168D01*
X143855438Y-110455438D01*
X143838168Y-110471090D01*
X143819448Y-110484974D01*
X143799457Y-110496956D01*
X143778387Y-110506921D01*
X143756443Y-110514773D01*
X143733834Y-110520437D01*
X143710779Y-110523856D01*
X143687500Y-110525000D01*
X143112500Y-110525000D01*
X143089221Y-110523856D01*
X143066166Y-110520437D01*
X143043557Y-110514773D01*
X143021613Y-110506921D01*
X143000543Y-110496956D01*
X142980552Y-110484974D01*
X142961832Y-110471090D01*
X142944562Y-110455438D01*
X142928910Y-110438168D01*
X142915026Y-110419448D01*
X142903044Y-110399457D01*
X142893079Y-110378387D01*
X142885227Y-110356443D01*
X142879563Y-110333834D01*
X142876144Y-110310779D01*
X142875000Y-110287500D01*
X142875000Y-109812500D01*
X142876144Y-109789221D01*
X142879563Y-109766166D01*
X142885227Y-109743557D01*
X142893079Y-109721613D01*
X142903044Y-109700543D01*
X142915026Y-109680552D01*
X142928910Y-109661832D01*
X142944562Y-109644562D01*
X142961832Y-109628910D01*
X142980552Y-109615026D01*
X143000543Y-109603044D01*
X143021613Y-109593079D01*
X143043557Y-109585227D01*
X143066166Y-109579563D01*
X143089221Y-109576144D01*
X143112500Y-109575000D01*
X143687500Y-109575000D01*
X143710779Y-109576144D01*
X143710779Y-109576144D01*
G37*
D13*
X143400000Y-110050000D03*
D12*
G36*
X139810779Y-85576144D02*
G01*
X139833834Y-85579563D01*
X139856443Y-85585227D01*
X139878387Y-85593079D01*
X139899457Y-85603044D01*
X139919448Y-85615026D01*
X139938168Y-85628910D01*
X139955438Y-85644562D01*
X139971090Y-85661832D01*
X139984974Y-85680552D01*
X139996956Y-85700543D01*
X140006921Y-85721613D01*
X140014773Y-85743557D01*
X140020437Y-85766166D01*
X140023856Y-85789221D01*
X140025000Y-85812500D01*
X140025000Y-86387500D01*
X140023856Y-86410779D01*
X140020437Y-86433834D01*
X140014773Y-86456443D01*
X140006921Y-86478387D01*
X139996956Y-86499457D01*
X139984974Y-86519448D01*
X139971090Y-86538168D01*
X139955438Y-86555438D01*
X139938168Y-86571090D01*
X139919448Y-86584974D01*
X139899457Y-86596956D01*
X139878387Y-86606921D01*
X139856443Y-86614773D01*
X139833834Y-86620437D01*
X139810779Y-86623856D01*
X139787500Y-86625000D01*
X139312500Y-86625000D01*
X139289221Y-86623856D01*
X139266166Y-86620437D01*
X139243557Y-86614773D01*
X139221613Y-86606921D01*
X139200543Y-86596956D01*
X139180552Y-86584974D01*
X139161832Y-86571090D01*
X139144562Y-86555438D01*
X139128910Y-86538168D01*
X139115026Y-86519448D01*
X139103044Y-86499457D01*
X139093079Y-86478387D01*
X139085227Y-86456443D01*
X139079563Y-86433834D01*
X139076144Y-86410779D01*
X139075000Y-86387500D01*
X139075000Y-85812500D01*
X139076144Y-85789221D01*
X139079563Y-85766166D01*
X139085227Y-85743557D01*
X139093079Y-85721613D01*
X139103044Y-85700543D01*
X139115026Y-85680552D01*
X139128910Y-85661832D01*
X139144562Y-85644562D01*
X139161832Y-85628910D01*
X139180552Y-85615026D01*
X139200543Y-85603044D01*
X139221613Y-85593079D01*
X139243557Y-85585227D01*
X139266166Y-85579563D01*
X139289221Y-85576144D01*
X139312500Y-85575000D01*
X139787500Y-85575000D01*
X139810779Y-85576144D01*
X139810779Y-85576144D01*
G37*
D13*
X139550000Y-86100000D03*
D12*
G36*
X139810779Y-83826144D02*
G01*
X139833834Y-83829563D01*
X139856443Y-83835227D01*
X139878387Y-83843079D01*
X139899457Y-83853044D01*
X139919448Y-83865026D01*
X139938168Y-83878910D01*
X139955438Y-83894562D01*
X139971090Y-83911832D01*
X139984974Y-83930552D01*
X139996956Y-83950543D01*
X140006921Y-83971613D01*
X140014773Y-83993557D01*
X140020437Y-84016166D01*
X140023856Y-84039221D01*
X140025000Y-84062500D01*
X140025000Y-84637500D01*
X140023856Y-84660779D01*
X140020437Y-84683834D01*
X140014773Y-84706443D01*
X140006921Y-84728387D01*
X139996956Y-84749457D01*
X139984974Y-84769448D01*
X139971090Y-84788168D01*
X139955438Y-84805438D01*
X139938168Y-84821090D01*
X139919448Y-84834974D01*
X139899457Y-84846956D01*
X139878387Y-84856921D01*
X139856443Y-84864773D01*
X139833834Y-84870437D01*
X139810779Y-84873856D01*
X139787500Y-84875000D01*
X139312500Y-84875000D01*
X139289221Y-84873856D01*
X139266166Y-84870437D01*
X139243557Y-84864773D01*
X139221613Y-84856921D01*
X139200543Y-84846956D01*
X139180552Y-84834974D01*
X139161832Y-84821090D01*
X139144562Y-84805438D01*
X139128910Y-84788168D01*
X139115026Y-84769448D01*
X139103044Y-84749457D01*
X139093079Y-84728387D01*
X139085227Y-84706443D01*
X139079563Y-84683834D01*
X139076144Y-84660779D01*
X139075000Y-84637500D01*
X139075000Y-84062500D01*
X139076144Y-84039221D01*
X139079563Y-84016166D01*
X139085227Y-83993557D01*
X139093079Y-83971613D01*
X139103044Y-83950543D01*
X139115026Y-83930552D01*
X139128910Y-83911832D01*
X139144562Y-83894562D01*
X139161832Y-83878910D01*
X139180552Y-83865026D01*
X139200543Y-83853044D01*
X139221613Y-83843079D01*
X139243557Y-83835227D01*
X139266166Y-83829563D01*
X139289221Y-83826144D01*
X139312500Y-83825000D01*
X139787500Y-83825000D01*
X139810779Y-83826144D01*
X139810779Y-83826144D01*
G37*
D13*
X139550000Y-84350000D03*
D12*
G36*
X137935779Y-85601144D02*
G01*
X137958834Y-85604563D01*
X137981443Y-85610227D01*
X138003387Y-85618079D01*
X138024457Y-85628044D01*
X138044448Y-85640026D01*
X138063168Y-85653910D01*
X138080438Y-85669562D01*
X138096090Y-85686832D01*
X138109974Y-85705552D01*
X138121956Y-85725543D01*
X138131921Y-85746613D01*
X138139773Y-85768557D01*
X138145437Y-85791166D01*
X138148856Y-85814221D01*
X138150000Y-85837500D01*
X138150000Y-86412500D01*
X138148856Y-86435779D01*
X138145437Y-86458834D01*
X138139773Y-86481443D01*
X138131921Y-86503387D01*
X138121956Y-86524457D01*
X138109974Y-86544448D01*
X138096090Y-86563168D01*
X138080438Y-86580438D01*
X138063168Y-86596090D01*
X138044448Y-86609974D01*
X138024457Y-86621956D01*
X138003387Y-86631921D01*
X137981443Y-86639773D01*
X137958834Y-86645437D01*
X137935779Y-86648856D01*
X137912500Y-86650000D01*
X137437500Y-86650000D01*
X137414221Y-86648856D01*
X137391166Y-86645437D01*
X137368557Y-86639773D01*
X137346613Y-86631921D01*
X137325543Y-86621956D01*
X137305552Y-86609974D01*
X137286832Y-86596090D01*
X137269562Y-86580438D01*
X137253910Y-86563168D01*
X137240026Y-86544448D01*
X137228044Y-86524457D01*
X137218079Y-86503387D01*
X137210227Y-86481443D01*
X137204563Y-86458834D01*
X137201144Y-86435779D01*
X137200000Y-86412500D01*
X137200000Y-85837500D01*
X137201144Y-85814221D01*
X137204563Y-85791166D01*
X137210227Y-85768557D01*
X137218079Y-85746613D01*
X137228044Y-85725543D01*
X137240026Y-85705552D01*
X137253910Y-85686832D01*
X137269562Y-85669562D01*
X137286832Y-85653910D01*
X137305552Y-85640026D01*
X137325543Y-85628044D01*
X137346613Y-85618079D01*
X137368557Y-85610227D01*
X137391166Y-85604563D01*
X137414221Y-85601144D01*
X137437500Y-85600000D01*
X137912500Y-85600000D01*
X137935779Y-85601144D01*
X137935779Y-85601144D01*
G37*
D13*
X137675000Y-86125000D03*
D12*
G36*
X137935779Y-83851144D02*
G01*
X137958834Y-83854563D01*
X137981443Y-83860227D01*
X138003387Y-83868079D01*
X138024457Y-83878044D01*
X138044448Y-83890026D01*
X138063168Y-83903910D01*
X138080438Y-83919562D01*
X138096090Y-83936832D01*
X138109974Y-83955552D01*
X138121956Y-83975543D01*
X138131921Y-83996613D01*
X138139773Y-84018557D01*
X138145437Y-84041166D01*
X138148856Y-84064221D01*
X138150000Y-84087500D01*
X138150000Y-84662500D01*
X138148856Y-84685779D01*
X138145437Y-84708834D01*
X138139773Y-84731443D01*
X138131921Y-84753387D01*
X138121956Y-84774457D01*
X138109974Y-84794448D01*
X138096090Y-84813168D01*
X138080438Y-84830438D01*
X138063168Y-84846090D01*
X138044448Y-84859974D01*
X138024457Y-84871956D01*
X138003387Y-84881921D01*
X137981443Y-84889773D01*
X137958834Y-84895437D01*
X137935779Y-84898856D01*
X137912500Y-84900000D01*
X137437500Y-84900000D01*
X137414221Y-84898856D01*
X137391166Y-84895437D01*
X137368557Y-84889773D01*
X137346613Y-84881921D01*
X137325543Y-84871956D01*
X137305552Y-84859974D01*
X137286832Y-84846090D01*
X137269562Y-84830438D01*
X137253910Y-84813168D01*
X137240026Y-84794448D01*
X137228044Y-84774457D01*
X137218079Y-84753387D01*
X137210227Y-84731443D01*
X137204563Y-84708834D01*
X137201144Y-84685779D01*
X137200000Y-84662500D01*
X137200000Y-84087500D01*
X137201144Y-84064221D01*
X137204563Y-84041166D01*
X137210227Y-84018557D01*
X137218079Y-83996613D01*
X137228044Y-83975543D01*
X137240026Y-83955552D01*
X137253910Y-83936832D01*
X137269562Y-83919562D01*
X137286832Y-83903910D01*
X137305552Y-83890026D01*
X137325543Y-83878044D01*
X137346613Y-83868079D01*
X137368557Y-83860227D01*
X137391166Y-83854563D01*
X137414221Y-83851144D01*
X137437500Y-83850000D01*
X137912500Y-83850000D01*
X137935779Y-83851144D01*
X137935779Y-83851144D01*
G37*
D13*
X137675000Y-84375000D03*
D16*
X130066400Y-105422300D03*
X128797700Y-102015300D03*
X128909300Y-90585700D03*
X128775100Y-93580200D03*
X142228300Y-87428600D03*
X127600000Y-96793900D03*
X130391500Y-89103400D03*
X127755300Y-106840100D03*
X126255300Y-104983800D03*
X125475000Y-92871900D03*
X124240100Y-95661600D03*
X140587300Y-88032700D03*
X124256000Y-100253800D03*
X128574900Y-104181800D03*
D17*
X127600000Y-99625000D02*
X128455300Y-99625000D01*
X130200000Y-96000000D02*
X128455300Y-97744700D01*
X128455300Y-97744700D02*
X128455300Y-99625000D01*
X130200000Y-94220000D02*
X128645000Y-95775000D01*
X128645000Y-95775000D02*
X127625000Y-95775000D01*
X127675000Y-91925000D02*
X128530300Y-91925000D01*
X130200000Y-92440000D02*
X129045300Y-92440000D01*
X129045300Y-92440000D02*
X128530300Y-91925000D01*
X127700000Y-88150000D02*
X128555300Y-88150000D01*
X130200000Y-90660000D02*
X128555300Y-89015300D01*
X128555300Y-89015300D02*
X128555300Y-88150000D01*
X137675000Y-84375000D02*
X135382700Y-86667300D01*
X135382700Y-86667300D02*
X131871900Y-86667300D01*
X131871900Y-86667300D02*
X130771600Y-85567000D01*
X130771600Y-85567000D02*
X124849400Y-85567000D01*
X124849400Y-85567000D02*
X124644700Y-85771700D01*
X124644700Y-85771700D02*
X124644700Y-87200000D01*
X139550000Y-84375000D02*
X137675000Y-84375000D01*
X125500000Y-87200000D02*
X124644700Y-87200000D01*
X143950000Y-89609700D02*
X143383700Y-89609700D01*
X143383700Y-89609700D02*
X140470300Y-86696300D01*
X140470300Y-86696300D02*
X140470300Y-85295300D01*
X140470300Y-85295300D02*
X139550000Y-84375000D01*
X125425000Y-94825000D02*
X124569700Y-94825000D01*
X124569700Y-94825000D02*
X124569700Y-91025000D01*
X124569700Y-91025000D02*
X124619700Y-90975000D01*
X125740100Y-94825000D02*
X125425000Y-94825000D01*
X125475000Y-90975000D02*
X124619700Y-90975000D01*
X125500000Y-87200000D02*
X126355300Y-87200000D01*
X126355300Y-87200000D02*
X126355300Y-88653900D01*
X126355300Y-88653900D02*
X125921700Y-89087500D01*
X125921700Y-89087500D02*
X125026500Y-89087500D01*
X125026500Y-89087500D02*
X124619700Y-89494300D01*
X124619700Y-89494300D02*
X124619700Y-90975000D01*
X125740100Y-94825000D02*
X126280300Y-94825000D01*
X139550000Y-84375000D02*
X139550000Y-84350000D01*
X143950000Y-90785000D02*
X143950000Y-89609700D01*
X125400000Y-98675000D02*
X124544700Y-98675000D01*
X126280300Y-94825000D02*
X126280300Y-96280400D01*
X126280300Y-96280400D02*
X125810700Y-96750000D01*
X125810700Y-96750000D02*
X125019300Y-96750000D01*
X125019300Y-96750000D02*
X124544700Y-97224600D01*
X124544700Y-97224600D02*
X124544700Y-98675000D01*
X125400000Y-102475000D02*
X124544700Y-102475000D01*
X125400000Y-98675000D02*
X126255300Y-98675000D01*
X126255300Y-98675000D02*
X126255300Y-100084800D01*
X126255300Y-100084800D02*
X125755500Y-100584600D01*
X125755500Y-100584600D02*
X124998600Y-100584600D01*
X124998600Y-100584600D02*
X124544700Y-101038500D01*
X124544700Y-101038500D02*
X124544700Y-102475000D01*
X139250000Y-110125000D02*
X138394700Y-110125000D01*
X129686900Y-108988100D02*
X131383400Y-110684600D01*
X131383400Y-110684600D02*
X137835100Y-110684600D01*
X137835100Y-110684600D02*
X138394700Y-110125000D01*
X129686900Y-108988100D02*
X130066400Y-108608600D01*
X130066400Y-108608600D02*
X130066400Y-105422300D01*
X129500000Y-109175000D02*
X129686900Y-108988100D01*
X128455300Y-101525000D02*
X128455300Y-101672900D01*
X128455300Y-101672900D02*
X128797700Y-102015300D01*
X127600000Y-101525000D02*
X128455300Y-101525000D01*
X130391500Y-89103400D02*
X139918800Y-89103400D01*
X139918800Y-89103400D02*
X141802800Y-90987400D01*
X141802800Y-90987400D02*
X141802800Y-95987200D01*
X141802800Y-95987200D02*
X140900000Y-96890000D01*
X128555300Y-86250000D02*
X128555300Y-87267200D01*
X128555300Y-87267200D02*
X130391500Y-89103400D01*
X128530300Y-90025000D02*
X128530300Y-90206700D01*
X128530300Y-90206700D02*
X128909300Y-90585700D01*
X127675000Y-90025000D02*
X128530300Y-90025000D01*
X129500000Y-109175000D02*
X128613300Y-110061700D01*
X128613300Y-110061700D02*
X126586700Y-110061700D01*
X126586700Y-110061700D02*
X125775000Y-109250000D01*
X128480300Y-93875000D02*
X128775100Y-93580200D01*
X127625000Y-93875000D02*
X128480300Y-93875000D01*
X127600000Y-97725000D02*
X127600000Y-96793900D01*
X141350000Y-86100000D02*
X142228300Y-86978300D01*
X142228300Y-86978300D02*
X142228300Y-87428600D01*
X140900000Y-96890000D02*
X140900000Y-98670000D01*
X127700000Y-86250000D02*
X128555300Y-86250000D01*
X139525000Y-86125000D02*
X139550000Y-86100000D01*
X137675000Y-86125000D02*
X139525000Y-86125000D01*
X139525000Y-86125000D02*
X139525000Y-88072600D01*
X139525000Y-88072600D02*
X142258800Y-90806400D01*
X142258800Y-90806400D02*
X142258800Y-99091200D01*
X142258800Y-99091200D02*
X140900000Y-100450000D01*
X140594700Y-107506200D02*
X140594700Y-109175000D01*
X145150000Y-110050000D02*
X145150000Y-104997000D01*
X145150000Y-104997000D02*
X145002600Y-104849600D01*
X145002600Y-104849600D02*
X142942300Y-104849600D01*
X142942300Y-104849600D02*
X140594700Y-107197200D01*
X140594700Y-107197200D02*
X140594700Y-107506200D01*
X131250000Y-109175000D02*
X132918800Y-107506200D01*
X132918800Y-107506200D02*
X140594700Y-107506200D01*
X141450000Y-109175000D02*
X140594700Y-109175000D01*
X125500000Y-86250000D02*
X126355300Y-86250000D01*
X126355300Y-86250000D02*
X126844700Y-86739400D01*
X126844700Y-86739400D02*
X126844700Y-87200000D01*
X126330300Y-90025000D02*
X126844700Y-89510600D01*
X126844700Y-89510600D02*
X126844700Y-87200000D01*
X127700000Y-87200000D02*
X126844700Y-87200000D01*
X126775200Y-90975000D02*
X126775200Y-90469900D01*
X126775200Y-90469900D02*
X126330300Y-90025000D01*
X127755300Y-106840100D02*
X127755300Y-105431300D01*
X127755300Y-105431300D02*
X126744700Y-104420700D01*
X126744700Y-104420700D02*
X126744700Y-102475000D01*
X125475000Y-90025000D02*
X126330300Y-90025000D01*
X126775200Y-90975000D02*
X126775200Y-93380100D01*
X126775200Y-93380100D02*
X126280300Y-93875000D01*
X126819700Y-90975000D02*
X126775200Y-90975000D01*
X126280300Y-93875000D02*
X126769700Y-94364400D01*
X126769700Y-94364400D02*
X126769700Y-94825000D01*
X125425000Y-93875000D02*
X126280300Y-93875000D01*
X126255300Y-97725000D02*
X126769700Y-97210600D01*
X126769700Y-97210600D02*
X126769700Y-94825000D01*
X127625000Y-94825000D02*
X126769700Y-94825000D01*
X126255300Y-97725000D02*
X126744700Y-98214400D01*
X126744700Y-98214400D02*
X126744700Y-98675000D01*
X141450000Y-110125000D02*
X142305300Y-110125000D01*
X142305300Y-110050000D02*
X142305300Y-110125000D01*
X143400000Y-110050000D02*
X142305300Y-110050000D01*
X142305300Y-110050000D02*
X142305300Y-108225000D01*
X127675000Y-90975000D02*
X126819700Y-90975000D01*
X126255300Y-101525000D02*
X126744700Y-102014400D01*
X126744700Y-102014400D02*
X126744700Y-102475000D01*
X126744700Y-98675000D02*
X126744700Y-101035600D01*
X126744700Y-101035600D02*
X126255300Y-101525000D01*
X127600000Y-102475000D02*
X126744700Y-102475000D01*
X127600000Y-98675000D02*
X126744700Y-98675000D01*
X125400000Y-101525000D02*
X126255300Y-101525000D01*
X143950000Y-106025000D02*
X143950000Y-107200300D01*
X143950000Y-107200300D02*
X143330000Y-107200300D01*
X143330000Y-107200300D02*
X142305300Y-108225000D01*
X125400000Y-97725000D02*
X126255300Y-97725000D01*
X141450000Y-108225000D02*
X142305300Y-108225000D01*
X143950000Y-87069700D02*
X143950000Y-86950000D01*
X143950000Y-86950000D02*
X141350000Y-84350000D01*
X143950000Y-88245000D02*
X143950000Y-87069700D01*
X125500000Y-88150000D02*
X124644700Y-88150000D01*
X143950000Y-93325000D02*
X143950000Y-92149700D01*
X143950000Y-92149700D02*
X144317300Y-92149700D01*
X144317300Y-92149700D02*
X145131400Y-91335600D01*
X145131400Y-91335600D02*
X145131400Y-86786000D01*
X145131400Y-86786000D02*
X141833300Y-83487900D01*
X141833300Y-83487900D02*
X126284900Y-83487900D01*
X126284900Y-83487900D02*
X124139400Y-85633400D01*
X124139400Y-85633400D02*
X124139400Y-87644700D01*
X124139400Y-87644700D02*
X124644700Y-88150000D01*
X126255300Y-104983800D02*
X126255300Y-103425000D01*
X125400000Y-103425000D02*
X126255300Y-103425000D01*
X125475000Y-91925000D02*
X125475000Y-92871900D01*
X143950000Y-99769700D02*
X143582600Y-99769700D01*
X143582600Y-99769700D02*
X142774700Y-98961800D01*
X142774700Y-98961800D02*
X142774700Y-90220100D01*
X142774700Y-90220100D02*
X140587300Y-88032700D01*
X143950000Y-100945000D02*
X143950000Y-99769700D01*
X124569700Y-95775000D02*
X124353500Y-95775000D01*
X124353500Y-95775000D02*
X124240100Y-95661600D01*
X125425000Y-95775000D02*
X124569700Y-95775000D01*
X124544700Y-99625000D02*
X124256000Y-99913700D01*
X124256000Y-99913700D02*
X124256000Y-100253800D01*
X125400000Y-99625000D02*
X124544700Y-99625000D01*
X127525000Y-109250000D02*
X129300300Y-107474700D01*
X129300300Y-107474700D02*
X129300300Y-103633100D01*
X129300300Y-103633100D02*
X129234400Y-103567200D01*
X129234400Y-103567200D02*
X129234400Y-102708400D01*
X129234400Y-102708400D02*
X130200000Y-101742800D01*
X130200000Y-101742800D02*
X130200000Y-101340000D01*
X128455300Y-103425000D02*
X128455300Y-104062200D01*
X128455300Y-104062200D02*
X128574900Y-104181800D01*
X127600000Y-103425000D02*
X128455300Y-103425000D01*
M02*
