G04 #@! TF.GenerationSoftware,KiCad,Pcbnew,5.1.4-e60b266~84~ubuntu18.04.1*
G04 #@! TF.CreationDate,2019-09-04T17:21:52+01:00*
G04 #@! TF.ProjectId,optical_sensor_daughter_board,6f707469-6361-46c5-9f73-656e736f725f,rev?*
G04 #@! TF.SameCoordinates,Original*
G04 #@! TF.FileFunction,Soldermask,Bot*
G04 #@! TF.FilePolarity,Negative*
%FSLAX46Y46*%
G04 Gerber Fmt 4.6, Leading zero omitted, Abs format (unit mm)*
G04 Created by KiCad (PCBNEW 5.1.4-e60b266~84~ubuntu18.04.1) date 2019-09-04 17:21:52*
%MOMM*%
%LPD*%
G04 APERTURE LIST*
%ADD10C,0.100000*%
G04 APERTURE END LIST*
D10*
G36*
X144851000Y-106926000D02*
G01*
X143049000Y-106926000D01*
X143049000Y-105124000D01*
X144851000Y-105124000D01*
X144851000Y-106926000D01*
X144851000Y-106926000D01*
G37*
G36*
X141082597Y-103408056D02*
G01*
X141196521Y-103455245D01*
X141196522Y-103455246D01*
X141299052Y-103523754D01*
X141386246Y-103610948D01*
X141386247Y-103610950D01*
X141454755Y-103713479D01*
X141501944Y-103827403D01*
X141526000Y-103948343D01*
X141526000Y-104071657D01*
X141501944Y-104192597D01*
X141454755Y-104306521D01*
X141454754Y-104306522D01*
X141386246Y-104409052D01*
X141299052Y-104496246D01*
X141247438Y-104530733D01*
X141196521Y-104564755D01*
X141082597Y-104611944D01*
X140961657Y-104636000D01*
X140838343Y-104636000D01*
X140717403Y-104611944D01*
X140603479Y-104564755D01*
X140552562Y-104530733D01*
X140500948Y-104496246D01*
X140413754Y-104409052D01*
X140345246Y-104306522D01*
X140345245Y-104306521D01*
X140298056Y-104192597D01*
X140274000Y-104071657D01*
X140274000Y-103948343D01*
X140298056Y-103827403D01*
X140345245Y-103713479D01*
X140413753Y-103610950D01*
X140413754Y-103610948D01*
X140500948Y-103523754D01*
X140603478Y-103455246D01*
X140603479Y-103455245D01*
X140717403Y-103408056D01*
X140838343Y-103384000D01*
X140961657Y-103384000D01*
X141082597Y-103408056D01*
X141082597Y-103408056D01*
G37*
G36*
X144060443Y-102590519D02*
G01*
X144126627Y-102597037D01*
X144296466Y-102648557D01*
X144452991Y-102732222D01*
X144488729Y-102761552D01*
X144590186Y-102844814D01*
X144666171Y-102937403D01*
X144702778Y-102982009D01*
X144786443Y-103138534D01*
X144837963Y-103308373D01*
X144855359Y-103485000D01*
X144837963Y-103661627D01*
X144786443Y-103831466D01*
X144702778Y-103987991D01*
X144673448Y-104023729D01*
X144590186Y-104125186D01*
X144508044Y-104192597D01*
X144452991Y-104237778D01*
X144296466Y-104321443D01*
X144126627Y-104372963D01*
X144060442Y-104379482D01*
X143994260Y-104386000D01*
X143905740Y-104386000D01*
X143839558Y-104379482D01*
X143773373Y-104372963D01*
X143603534Y-104321443D01*
X143447009Y-104237778D01*
X143391956Y-104192597D01*
X143309814Y-104125186D01*
X143226552Y-104023729D01*
X143197222Y-103987991D01*
X143113557Y-103831466D01*
X143062037Y-103661627D01*
X143044641Y-103485000D01*
X143062037Y-103308373D01*
X143113557Y-103138534D01*
X143197222Y-102982009D01*
X143233829Y-102937403D01*
X143309814Y-102844814D01*
X143411271Y-102761552D01*
X143447009Y-102732222D01*
X143603534Y-102648557D01*
X143773373Y-102597037D01*
X143839557Y-102590519D01*
X143905740Y-102584000D01*
X143994260Y-102584000D01*
X144060443Y-102590519D01*
X144060443Y-102590519D01*
G37*
G36*
X130382597Y-102518056D02*
G01*
X130496521Y-102565245D01*
X130544101Y-102597037D01*
X130599052Y-102633754D01*
X130686246Y-102720948D01*
X130686247Y-102720950D01*
X130754755Y-102823479D01*
X130801944Y-102937403D01*
X130826000Y-103058343D01*
X130826000Y-103181657D01*
X130801944Y-103302597D01*
X130754755Y-103416521D01*
X130754754Y-103416522D01*
X130686246Y-103519052D01*
X130599052Y-103606246D01*
X130547438Y-103640733D01*
X130496521Y-103674755D01*
X130382597Y-103721944D01*
X130261657Y-103746000D01*
X130138343Y-103746000D01*
X130017403Y-103721944D01*
X129903479Y-103674755D01*
X129852562Y-103640733D01*
X129800948Y-103606246D01*
X129713754Y-103519052D01*
X129645246Y-103416522D01*
X129645245Y-103416521D01*
X129598056Y-103302597D01*
X129574000Y-103181657D01*
X129574000Y-103058343D01*
X129598056Y-102937403D01*
X129645245Y-102823479D01*
X129713753Y-102720950D01*
X129713754Y-102720948D01*
X129800948Y-102633754D01*
X129855899Y-102597037D01*
X129903479Y-102565245D01*
X130017403Y-102518056D01*
X130138343Y-102494000D01*
X130261657Y-102494000D01*
X130382597Y-102518056D01*
X130382597Y-102518056D01*
G37*
G36*
X141082597Y-101628056D02*
G01*
X141196521Y-101675245D01*
X141196522Y-101675246D01*
X141299052Y-101743754D01*
X141386246Y-101830948D01*
X141386247Y-101830950D01*
X141454755Y-101933479D01*
X141501944Y-102047403D01*
X141526000Y-102168343D01*
X141526000Y-102291657D01*
X141501944Y-102412597D01*
X141454755Y-102526521D01*
X141454754Y-102526522D01*
X141386246Y-102629052D01*
X141299052Y-102716246D01*
X141275142Y-102732222D01*
X141196521Y-102784755D01*
X141082597Y-102831944D01*
X140961657Y-102856000D01*
X140838343Y-102856000D01*
X140717403Y-102831944D01*
X140603479Y-102784755D01*
X140524858Y-102732222D01*
X140500948Y-102716246D01*
X140413754Y-102629052D01*
X140345246Y-102526522D01*
X140345245Y-102526521D01*
X140298056Y-102412597D01*
X140274000Y-102291657D01*
X140274000Y-102168343D01*
X140298056Y-102047403D01*
X140345245Y-101933479D01*
X140413753Y-101830950D01*
X140413754Y-101830948D01*
X140500948Y-101743754D01*
X140603478Y-101675246D01*
X140603479Y-101675245D01*
X140717403Y-101628056D01*
X140838343Y-101604000D01*
X140961657Y-101604000D01*
X141082597Y-101628056D01*
X141082597Y-101628056D01*
G37*
G36*
X130382597Y-100738056D02*
G01*
X130496521Y-100785245D01*
X130496522Y-100785246D01*
X130599052Y-100853754D01*
X130686246Y-100940948D01*
X130686247Y-100940950D01*
X130754755Y-101043479D01*
X130801944Y-101157403D01*
X130826000Y-101278343D01*
X130826000Y-101401657D01*
X130801944Y-101522597D01*
X130754755Y-101636521D01*
X130754754Y-101636522D01*
X130686246Y-101739052D01*
X130599052Y-101826246D01*
X130588999Y-101832963D01*
X130496521Y-101894755D01*
X130382597Y-101941944D01*
X130261657Y-101966000D01*
X130138343Y-101966000D01*
X130017403Y-101941944D01*
X129903479Y-101894755D01*
X129811001Y-101832963D01*
X129800948Y-101826246D01*
X129713754Y-101739052D01*
X129645246Y-101636522D01*
X129645245Y-101636521D01*
X129598056Y-101522597D01*
X129574000Y-101401657D01*
X129574000Y-101278343D01*
X129598056Y-101157403D01*
X129645245Y-101043479D01*
X129713753Y-100940950D01*
X129713754Y-100940948D01*
X129800948Y-100853754D01*
X129903478Y-100785246D01*
X129903479Y-100785245D01*
X130017403Y-100738056D01*
X130138343Y-100714000D01*
X130261657Y-100714000D01*
X130382597Y-100738056D01*
X130382597Y-100738056D01*
G37*
G36*
X144060442Y-100050518D02*
G01*
X144126627Y-100057037D01*
X144296466Y-100108557D01*
X144452991Y-100192222D01*
X144488729Y-100221552D01*
X144590186Y-100304814D01*
X144658735Y-100388343D01*
X144702778Y-100442009D01*
X144786443Y-100598534D01*
X144837963Y-100768373D01*
X144855359Y-100945000D01*
X144837963Y-101121627D01*
X144786443Y-101291466D01*
X144702778Y-101447991D01*
X144673448Y-101483729D01*
X144590186Y-101585186D01*
X144488729Y-101668448D01*
X144452991Y-101697778D01*
X144452989Y-101697779D01*
X144366979Y-101743753D01*
X144296466Y-101781443D01*
X144126627Y-101832963D01*
X144060442Y-101839482D01*
X143994260Y-101846000D01*
X143905740Y-101846000D01*
X143839558Y-101839482D01*
X143773373Y-101832963D01*
X143603534Y-101781443D01*
X143533022Y-101743753D01*
X143447011Y-101697779D01*
X143447009Y-101697778D01*
X143411271Y-101668448D01*
X143309814Y-101585186D01*
X143226552Y-101483729D01*
X143197222Y-101447991D01*
X143113557Y-101291466D01*
X143062037Y-101121627D01*
X143044641Y-100945000D01*
X143062037Y-100768373D01*
X143113557Y-100598534D01*
X143197222Y-100442009D01*
X143241265Y-100388343D01*
X143309814Y-100304814D01*
X143411271Y-100221552D01*
X143447009Y-100192222D01*
X143603534Y-100108557D01*
X143773373Y-100057037D01*
X143839557Y-100050519D01*
X143905740Y-100044000D01*
X143994260Y-100044000D01*
X144060442Y-100050518D01*
X144060442Y-100050518D01*
G37*
G36*
X141082597Y-99848056D02*
G01*
X141196521Y-99895245D01*
X141196522Y-99895246D01*
X141299052Y-99963754D01*
X141386246Y-100050948D01*
X141420733Y-100102562D01*
X141454755Y-100153479D01*
X141501944Y-100267403D01*
X141526000Y-100388343D01*
X141526000Y-100511657D01*
X141501944Y-100632597D01*
X141454755Y-100746521D01*
X141428880Y-100785245D01*
X141386246Y-100849052D01*
X141299052Y-100936246D01*
X141247438Y-100970733D01*
X141196521Y-101004755D01*
X141082597Y-101051944D01*
X140961657Y-101076000D01*
X140838343Y-101076000D01*
X140717403Y-101051944D01*
X140603479Y-101004755D01*
X140552562Y-100970733D01*
X140500948Y-100936246D01*
X140413754Y-100849052D01*
X140371120Y-100785245D01*
X140345245Y-100746521D01*
X140298056Y-100632597D01*
X140274000Y-100511657D01*
X140274000Y-100388343D01*
X140298056Y-100267403D01*
X140345245Y-100153479D01*
X140379267Y-100102562D01*
X140413754Y-100050948D01*
X140500948Y-99963754D01*
X140603478Y-99895246D01*
X140603479Y-99895245D01*
X140717403Y-99848056D01*
X140838343Y-99824000D01*
X140961657Y-99824000D01*
X141082597Y-99848056D01*
X141082597Y-99848056D01*
G37*
G36*
X130382597Y-98958056D02*
G01*
X130496521Y-99005245D01*
X130496522Y-99005246D01*
X130599052Y-99073754D01*
X130686246Y-99160948D01*
X130686247Y-99160950D01*
X130754755Y-99263479D01*
X130801944Y-99377403D01*
X130826000Y-99498343D01*
X130826000Y-99621657D01*
X130801944Y-99742597D01*
X130754755Y-99856521D01*
X130754754Y-99856522D01*
X130686246Y-99959052D01*
X130599052Y-100046246D01*
X130582902Y-100057037D01*
X130496521Y-100114755D01*
X130382597Y-100161944D01*
X130261657Y-100186000D01*
X130138343Y-100186000D01*
X130017403Y-100161944D01*
X129903479Y-100114755D01*
X129817098Y-100057037D01*
X129800948Y-100046246D01*
X129713754Y-99959052D01*
X129645246Y-99856522D01*
X129645245Y-99856521D01*
X129598056Y-99742597D01*
X129574000Y-99621657D01*
X129574000Y-99498343D01*
X129598056Y-99377403D01*
X129645245Y-99263479D01*
X129713753Y-99160950D01*
X129713754Y-99160948D01*
X129800948Y-99073754D01*
X129903478Y-99005246D01*
X129903479Y-99005245D01*
X130017403Y-98958056D01*
X130138343Y-98934000D01*
X130261657Y-98934000D01*
X130382597Y-98958056D01*
X130382597Y-98958056D01*
G37*
G36*
X144060442Y-97510518D02*
G01*
X144126627Y-97517037D01*
X144296466Y-97568557D01*
X144452991Y-97652222D01*
X144488729Y-97681552D01*
X144590186Y-97764814D01*
X144653248Y-97841657D01*
X144702778Y-97902009D01*
X144786443Y-98058534D01*
X144837963Y-98228373D01*
X144855359Y-98405000D01*
X144837963Y-98581627D01*
X144786443Y-98751466D01*
X144702778Y-98907991D01*
X144681433Y-98934000D01*
X144590186Y-99045186D01*
X144488729Y-99128448D01*
X144452991Y-99157778D01*
X144296466Y-99241443D01*
X144126627Y-99292963D01*
X144060442Y-99299482D01*
X143994260Y-99306000D01*
X143905740Y-99306000D01*
X143839557Y-99299481D01*
X143773373Y-99292963D01*
X143603534Y-99241443D01*
X143447009Y-99157778D01*
X143411271Y-99128448D01*
X143309814Y-99045186D01*
X143218567Y-98934000D01*
X143197222Y-98907991D01*
X143113557Y-98751466D01*
X143062037Y-98581627D01*
X143044641Y-98405000D01*
X143062037Y-98228373D01*
X143113557Y-98058534D01*
X143197222Y-97902009D01*
X143246752Y-97841657D01*
X143309814Y-97764814D01*
X143411271Y-97681552D01*
X143447009Y-97652222D01*
X143603534Y-97568557D01*
X143773373Y-97517037D01*
X143839557Y-97510519D01*
X143905740Y-97504000D01*
X143994260Y-97504000D01*
X144060442Y-97510518D01*
X144060442Y-97510518D01*
G37*
G36*
X141082597Y-98068056D02*
G01*
X141196521Y-98115245D01*
X141196522Y-98115246D01*
X141299052Y-98183754D01*
X141386246Y-98270948D01*
X141386247Y-98270950D01*
X141454755Y-98373479D01*
X141501944Y-98487403D01*
X141526000Y-98608343D01*
X141526000Y-98731657D01*
X141501944Y-98852597D01*
X141454755Y-98966521D01*
X141454754Y-98966522D01*
X141386246Y-99069052D01*
X141299052Y-99156246D01*
X141247438Y-99190733D01*
X141196521Y-99224755D01*
X141082597Y-99271944D01*
X140961657Y-99296000D01*
X140838343Y-99296000D01*
X140717403Y-99271944D01*
X140603479Y-99224755D01*
X140552562Y-99190733D01*
X140500948Y-99156246D01*
X140413754Y-99069052D01*
X140345246Y-98966522D01*
X140345245Y-98966521D01*
X140298056Y-98852597D01*
X140274000Y-98731657D01*
X140274000Y-98608343D01*
X140298056Y-98487403D01*
X140345245Y-98373479D01*
X140413753Y-98270950D01*
X140413754Y-98270948D01*
X140500948Y-98183754D01*
X140603478Y-98115246D01*
X140603479Y-98115245D01*
X140717403Y-98068056D01*
X140838343Y-98044000D01*
X140961657Y-98044000D01*
X141082597Y-98068056D01*
X141082597Y-98068056D01*
G37*
G36*
X130382597Y-97178056D02*
G01*
X130496521Y-97225245D01*
X130496522Y-97225246D01*
X130599052Y-97293754D01*
X130686246Y-97380948D01*
X130686247Y-97380950D01*
X130754755Y-97483479D01*
X130801944Y-97597403D01*
X130826000Y-97718343D01*
X130826000Y-97841657D01*
X130801944Y-97962597D01*
X130754755Y-98076521D01*
X130754754Y-98076522D01*
X130686246Y-98179052D01*
X130599052Y-98266246D01*
X130547438Y-98300733D01*
X130496521Y-98334755D01*
X130382597Y-98381944D01*
X130261657Y-98406000D01*
X130138343Y-98406000D01*
X130017403Y-98381944D01*
X129903479Y-98334755D01*
X129852562Y-98300733D01*
X129800948Y-98266246D01*
X129713754Y-98179052D01*
X129645246Y-98076522D01*
X129645245Y-98076521D01*
X129598056Y-97962597D01*
X129574000Y-97841657D01*
X129574000Y-97718343D01*
X129598056Y-97597403D01*
X129645245Y-97483479D01*
X129713753Y-97380950D01*
X129713754Y-97380948D01*
X129800948Y-97293754D01*
X129903478Y-97225246D01*
X129903479Y-97225245D01*
X130017403Y-97178056D01*
X130138343Y-97154000D01*
X130261657Y-97154000D01*
X130382597Y-97178056D01*
X130382597Y-97178056D01*
G37*
G36*
X141082597Y-96288056D02*
G01*
X141196521Y-96335245D01*
X141196522Y-96335246D01*
X141299052Y-96403754D01*
X141386246Y-96490948D01*
X141386247Y-96490950D01*
X141454755Y-96593479D01*
X141501944Y-96707403D01*
X141526000Y-96828343D01*
X141526000Y-96951657D01*
X141501944Y-97072597D01*
X141454755Y-97186521D01*
X141454754Y-97186522D01*
X141386246Y-97289052D01*
X141299052Y-97376246D01*
X141247438Y-97410733D01*
X141196521Y-97444755D01*
X141082597Y-97491944D01*
X140961657Y-97516000D01*
X140838343Y-97516000D01*
X140717403Y-97491944D01*
X140603479Y-97444755D01*
X140552562Y-97410733D01*
X140500948Y-97376246D01*
X140413754Y-97289052D01*
X140345246Y-97186522D01*
X140345245Y-97186521D01*
X140298056Y-97072597D01*
X140274000Y-96951657D01*
X140274000Y-96828343D01*
X140298056Y-96707403D01*
X140345245Y-96593479D01*
X140413753Y-96490950D01*
X140413754Y-96490948D01*
X140500948Y-96403754D01*
X140603478Y-96335246D01*
X140603479Y-96335245D01*
X140717403Y-96288056D01*
X140838343Y-96264000D01*
X140961657Y-96264000D01*
X141082597Y-96288056D01*
X141082597Y-96288056D01*
G37*
G36*
X144060442Y-94970518D02*
G01*
X144126627Y-94977037D01*
X144296466Y-95028557D01*
X144452991Y-95112222D01*
X144488729Y-95141552D01*
X144590186Y-95224814D01*
X144645813Y-95292597D01*
X144702778Y-95362009D01*
X144702779Y-95362011D01*
X144783888Y-95513753D01*
X144786443Y-95518534D01*
X144837963Y-95688373D01*
X144855359Y-95865000D01*
X144837963Y-96041627D01*
X144786443Y-96211466D01*
X144702778Y-96367991D01*
X144677288Y-96399050D01*
X144590186Y-96505186D01*
X144488729Y-96588448D01*
X144452991Y-96617778D01*
X144296466Y-96701443D01*
X144126627Y-96752963D01*
X144060443Y-96759481D01*
X143994260Y-96766000D01*
X143905740Y-96766000D01*
X143839557Y-96759481D01*
X143773373Y-96752963D01*
X143603534Y-96701443D01*
X143447009Y-96617778D01*
X143411271Y-96588448D01*
X143309814Y-96505186D01*
X143222712Y-96399050D01*
X143197222Y-96367991D01*
X143113557Y-96211466D01*
X143062037Y-96041627D01*
X143044641Y-95865000D01*
X143062037Y-95688373D01*
X143113557Y-95518534D01*
X143116113Y-95513753D01*
X143197221Y-95362011D01*
X143197222Y-95362009D01*
X143254187Y-95292597D01*
X143309814Y-95224814D01*
X143411271Y-95141552D01*
X143447009Y-95112222D01*
X143603534Y-95028557D01*
X143773373Y-94977037D01*
X143839558Y-94970518D01*
X143905740Y-94964000D01*
X143994260Y-94964000D01*
X144060442Y-94970518D01*
X144060442Y-94970518D01*
G37*
G36*
X130382597Y-95398056D02*
G01*
X130496521Y-95445245D01*
X130496522Y-95445246D01*
X130599052Y-95513754D01*
X130686246Y-95600948D01*
X130686247Y-95600950D01*
X130754755Y-95703479D01*
X130801944Y-95817403D01*
X130826000Y-95938343D01*
X130826000Y-96061657D01*
X130801944Y-96182597D01*
X130754755Y-96296521D01*
X130754754Y-96296522D01*
X130686246Y-96399052D01*
X130599052Y-96486246D01*
X130570706Y-96505186D01*
X130496521Y-96554755D01*
X130382597Y-96601944D01*
X130261657Y-96626000D01*
X130138343Y-96626000D01*
X130017403Y-96601944D01*
X129903479Y-96554755D01*
X129829294Y-96505186D01*
X129800948Y-96486246D01*
X129713754Y-96399052D01*
X129645246Y-96296522D01*
X129645245Y-96296521D01*
X129598056Y-96182597D01*
X129574000Y-96061657D01*
X129574000Y-95938343D01*
X129598056Y-95817403D01*
X129645245Y-95703479D01*
X129713753Y-95600950D01*
X129713754Y-95600948D01*
X129800948Y-95513754D01*
X129903478Y-95445246D01*
X129903479Y-95445245D01*
X130017403Y-95398056D01*
X130138343Y-95374000D01*
X130261657Y-95374000D01*
X130382597Y-95398056D01*
X130382597Y-95398056D01*
G37*
G36*
X141082597Y-94508056D02*
G01*
X141196521Y-94555245D01*
X141196522Y-94555246D01*
X141299052Y-94623754D01*
X141386246Y-94710948D01*
X141386247Y-94710950D01*
X141454755Y-94813479D01*
X141501944Y-94927403D01*
X141526000Y-95048343D01*
X141526000Y-95171657D01*
X141501944Y-95292597D01*
X141454755Y-95406521D01*
X141454754Y-95406522D01*
X141386246Y-95509052D01*
X141299052Y-95596246D01*
X141247438Y-95630733D01*
X141196521Y-95664755D01*
X141082597Y-95711944D01*
X140961657Y-95736000D01*
X140838343Y-95736000D01*
X140717403Y-95711944D01*
X140603479Y-95664755D01*
X140552562Y-95630733D01*
X140500948Y-95596246D01*
X140413754Y-95509052D01*
X140345246Y-95406522D01*
X140345245Y-95406521D01*
X140298056Y-95292597D01*
X140274000Y-95171657D01*
X140274000Y-95048343D01*
X140298056Y-94927403D01*
X140345245Y-94813479D01*
X140413753Y-94710950D01*
X140413754Y-94710948D01*
X140500948Y-94623754D01*
X140603478Y-94555246D01*
X140603479Y-94555245D01*
X140717403Y-94508056D01*
X140838343Y-94484000D01*
X140961657Y-94484000D01*
X141082597Y-94508056D01*
X141082597Y-94508056D01*
G37*
G36*
X130382597Y-93618056D02*
G01*
X130496521Y-93665245D01*
X130496522Y-93665246D01*
X130599052Y-93733754D01*
X130686246Y-93820948D01*
X130690952Y-93827991D01*
X130754755Y-93923479D01*
X130801944Y-94037403D01*
X130826000Y-94158343D01*
X130826000Y-94281657D01*
X130801944Y-94402597D01*
X130754755Y-94516521D01*
X130754754Y-94516522D01*
X130686246Y-94619052D01*
X130599052Y-94706246D01*
X130547438Y-94740733D01*
X130496521Y-94774755D01*
X130382597Y-94821944D01*
X130261657Y-94846000D01*
X130138343Y-94846000D01*
X130017403Y-94821944D01*
X129903479Y-94774755D01*
X129852562Y-94740733D01*
X129800948Y-94706246D01*
X129713754Y-94619052D01*
X129645246Y-94516522D01*
X129645245Y-94516521D01*
X129598056Y-94402597D01*
X129574000Y-94281657D01*
X129574000Y-94158343D01*
X129598056Y-94037403D01*
X129645245Y-93923479D01*
X129709048Y-93827991D01*
X129713754Y-93820948D01*
X129800948Y-93733754D01*
X129903478Y-93665246D01*
X129903479Y-93665245D01*
X130017403Y-93618056D01*
X130138343Y-93594000D01*
X130261657Y-93594000D01*
X130382597Y-93618056D01*
X130382597Y-93618056D01*
G37*
G36*
X144060443Y-92430519D02*
G01*
X144126627Y-92437037D01*
X144296466Y-92488557D01*
X144452991Y-92572222D01*
X144488729Y-92601552D01*
X144590186Y-92684814D01*
X144673448Y-92786271D01*
X144702778Y-92822009D01*
X144786443Y-92978534D01*
X144837963Y-93148373D01*
X144855359Y-93325000D01*
X144837963Y-93501627D01*
X144786443Y-93671466D01*
X144702778Y-93827991D01*
X144673448Y-93863729D01*
X144590186Y-93965186D01*
X144502188Y-94037403D01*
X144452991Y-94077778D01*
X144296466Y-94161443D01*
X144126627Y-94212963D01*
X144060442Y-94219482D01*
X143994260Y-94226000D01*
X143905740Y-94226000D01*
X143839558Y-94219482D01*
X143773373Y-94212963D01*
X143603534Y-94161443D01*
X143447009Y-94077778D01*
X143397812Y-94037403D01*
X143309814Y-93965186D01*
X143226552Y-93863729D01*
X143197222Y-93827991D01*
X143113557Y-93671466D01*
X143062037Y-93501627D01*
X143044641Y-93325000D01*
X143062037Y-93148373D01*
X143113557Y-92978534D01*
X143197222Y-92822009D01*
X143226552Y-92786271D01*
X143309814Y-92684814D01*
X143411271Y-92601552D01*
X143447009Y-92572222D01*
X143603534Y-92488557D01*
X143773373Y-92437037D01*
X143839557Y-92430519D01*
X143905740Y-92424000D01*
X143994260Y-92424000D01*
X144060443Y-92430519D01*
X144060443Y-92430519D01*
G37*
G36*
X141082597Y-92728056D02*
G01*
X141196521Y-92775245D01*
X141196522Y-92775246D01*
X141299052Y-92843754D01*
X141386246Y-92930948D01*
X141386247Y-92930950D01*
X141454755Y-93033479D01*
X141501944Y-93147403D01*
X141526000Y-93268343D01*
X141526000Y-93391657D01*
X141501944Y-93512597D01*
X141454755Y-93626521D01*
X141454754Y-93626522D01*
X141386246Y-93729052D01*
X141299052Y-93816246D01*
X141281477Y-93827989D01*
X141196521Y-93884755D01*
X141082597Y-93931944D01*
X140961657Y-93956000D01*
X140838343Y-93956000D01*
X140717403Y-93931944D01*
X140603479Y-93884755D01*
X140518523Y-93827989D01*
X140500948Y-93816246D01*
X140413754Y-93729052D01*
X140345246Y-93626522D01*
X140345245Y-93626521D01*
X140298056Y-93512597D01*
X140274000Y-93391657D01*
X140274000Y-93268343D01*
X140298056Y-93147403D01*
X140345245Y-93033479D01*
X140413753Y-92930950D01*
X140413754Y-92930948D01*
X140500948Y-92843754D01*
X140603478Y-92775246D01*
X140603479Y-92775245D01*
X140717403Y-92728056D01*
X140838343Y-92704000D01*
X140961657Y-92704000D01*
X141082597Y-92728056D01*
X141082597Y-92728056D01*
G37*
G36*
X130382597Y-91838056D02*
G01*
X130496521Y-91885245D01*
X130496522Y-91885246D01*
X130599052Y-91953754D01*
X130686246Y-92040948D01*
X130686247Y-92040950D01*
X130754755Y-92143479D01*
X130801944Y-92257403D01*
X130826000Y-92378343D01*
X130826000Y-92501657D01*
X130801944Y-92622597D01*
X130754755Y-92736521D01*
X130754754Y-92736522D01*
X130686246Y-92839052D01*
X130599052Y-92926246D01*
X130547438Y-92960733D01*
X130496521Y-92994755D01*
X130382597Y-93041944D01*
X130261657Y-93066000D01*
X130138343Y-93066000D01*
X130017403Y-93041944D01*
X129903479Y-92994755D01*
X129852562Y-92960733D01*
X129800948Y-92926246D01*
X129713754Y-92839052D01*
X129645246Y-92736522D01*
X129645245Y-92736521D01*
X129598056Y-92622597D01*
X129574000Y-92501657D01*
X129574000Y-92378343D01*
X129598056Y-92257403D01*
X129645245Y-92143479D01*
X129713753Y-92040950D01*
X129713754Y-92040948D01*
X129800948Y-91953754D01*
X129903478Y-91885246D01*
X129903479Y-91885245D01*
X130017403Y-91838056D01*
X130138343Y-91814000D01*
X130261657Y-91814000D01*
X130382597Y-91838056D01*
X130382597Y-91838056D01*
G37*
G36*
X141082597Y-90948056D02*
G01*
X141196521Y-90995245D01*
X141196522Y-90995246D01*
X141299052Y-91063754D01*
X141386246Y-91150948D01*
X141386247Y-91150950D01*
X141454755Y-91253479D01*
X141501944Y-91367403D01*
X141526000Y-91488343D01*
X141526000Y-91611657D01*
X141501944Y-91732597D01*
X141454755Y-91846521D01*
X141454754Y-91846522D01*
X141386246Y-91949052D01*
X141299052Y-92036246D01*
X141247438Y-92070733D01*
X141196521Y-92104755D01*
X141082597Y-92151944D01*
X140961657Y-92176000D01*
X140838343Y-92176000D01*
X140717403Y-92151944D01*
X140603479Y-92104755D01*
X140552562Y-92070733D01*
X140500948Y-92036246D01*
X140413754Y-91949052D01*
X140345246Y-91846522D01*
X140345245Y-91846521D01*
X140298056Y-91732597D01*
X140274000Y-91611657D01*
X140274000Y-91488343D01*
X140298056Y-91367403D01*
X140345245Y-91253479D01*
X140413753Y-91150950D01*
X140413754Y-91150948D01*
X140500948Y-91063754D01*
X140603478Y-90995246D01*
X140603479Y-90995245D01*
X140717403Y-90948056D01*
X140838343Y-90924000D01*
X140961657Y-90924000D01*
X141082597Y-90948056D01*
X141082597Y-90948056D01*
G37*
G36*
X144060443Y-89890519D02*
G01*
X144126627Y-89897037D01*
X144296466Y-89948557D01*
X144452991Y-90032222D01*
X144455157Y-90034000D01*
X144590186Y-90144814D01*
X144673448Y-90246271D01*
X144702778Y-90282009D01*
X144786443Y-90438534D01*
X144837963Y-90608373D01*
X144855359Y-90785000D01*
X144837963Y-90961627D01*
X144786443Y-91131466D01*
X144702778Y-91287991D01*
X144673448Y-91323729D01*
X144590186Y-91425186D01*
X144488729Y-91508448D01*
X144452991Y-91537778D01*
X144296466Y-91621443D01*
X144126627Y-91672963D01*
X144060443Y-91679481D01*
X143994260Y-91686000D01*
X143905740Y-91686000D01*
X143839557Y-91679481D01*
X143773373Y-91672963D01*
X143603534Y-91621443D01*
X143447009Y-91537778D01*
X143411271Y-91508448D01*
X143309814Y-91425186D01*
X143226552Y-91323729D01*
X143197222Y-91287991D01*
X143113557Y-91131466D01*
X143062037Y-90961627D01*
X143044641Y-90785000D01*
X143062037Y-90608373D01*
X143113557Y-90438534D01*
X143197222Y-90282009D01*
X143226552Y-90246271D01*
X143309814Y-90144814D01*
X143444843Y-90034000D01*
X143447009Y-90032222D01*
X143603534Y-89948557D01*
X143773373Y-89897037D01*
X143839557Y-89890519D01*
X143905740Y-89884000D01*
X143994260Y-89884000D01*
X144060443Y-89890519D01*
X144060443Y-89890519D01*
G37*
G36*
X130382597Y-90058056D02*
G01*
X130496521Y-90105245D01*
X130496522Y-90105246D01*
X130599052Y-90173754D01*
X130686246Y-90260948D01*
X130686247Y-90260950D01*
X130754755Y-90363479D01*
X130801944Y-90477403D01*
X130826000Y-90598343D01*
X130826000Y-90721657D01*
X130801944Y-90842597D01*
X130754755Y-90956521D01*
X130751343Y-90961627D01*
X130686246Y-91059052D01*
X130599052Y-91146246D01*
X130547438Y-91180733D01*
X130496521Y-91214755D01*
X130382597Y-91261944D01*
X130261657Y-91286000D01*
X130138343Y-91286000D01*
X130017403Y-91261944D01*
X129903479Y-91214755D01*
X129852562Y-91180733D01*
X129800948Y-91146246D01*
X129713754Y-91059052D01*
X129648657Y-90961627D01*
X129645245Y-90956521D01*
X129598056Y-90842597D01*
X129574000Y-90721657D01*
X129574000Y-90598343D01*
X129598056Y-90477403D01*
X129645245Y-90363479D01*
X129713753Y-90260950D01*
X129713754Y-90260948D01*
X129800948Y-90173754D01*
X129903478Y-90105246D01*
X129903479Y-90105245D01*
X130017403Y-90058056D01*
X130138343Y-90034000D01*
X130261657Y-90034000D01*
X130382597Y-90058056D01*
X130382597Y-90058056D01*
G37*
G36*
X144060442Y-87350518D02*
G01*
X144126627Y-87357037D01*
X144296466Y-87408557D01*
X144452991Y-87492222D01*
X144488729Y-87521552D01*
X144590186Y-87604814D01*
X144673448Y-87706271D01*
X144702778Y-87742009D01*
X144786443Y-87898534D01*
X144837963Y-88068373D01*
X144855359Y-88245000D01*
X144837963Y-88421627D01*
X144786443Y-88591466D01*
X144702778Y-88747991D01*
X144673448Y-88783729D01*
X144590186Y-88885186D01*
X144488729Y-88968448D01*
X144452991Y-88997778D01*
X144296466Y-89081443D01*
X144126627Y-89132963D01*
X144060442Y-89139482D01*
X143994260Y-89146000D01*
X143905740Y-89146000D01*
X143839558Y-89139482D01*
X143773373Y-89132963D01*
X143603534Y-89081443D01*
X143447009Y-88997778D01*
X143411271Y-88968448D01*
X143309814Y-88885186D01*
X143226552Y-88783729D01*
X143197222Y-88747991D01*
X143113557Y-88591466D01*
X143062037Y-88421627D01*
X143044641Y-88245000D01*
X143062037Y-88068373D01*
X143113557Y-87898534D01*
X143197222Y-87742009D01*
X143226552Y-87706271D01*
X143309814Y-87604814D01*
X143411271Y-87521552D01*
X143447009Y-87492222D01*
X143603534Y-87408557D01*
X143773373Y-87357037D01*
X143839558Y-87350518D01*
X143905740Y-87344000D01*
X143994260Y-87344000D01*
X144060442Y-87350518D01*
X144060442Y-87350518D01*
G37*
M02*
