G04 #@! TF.GenerationSoftware,KiCad,Pcbnew,5.1.4-e60b266~84~ubuntu18.04.1*
G04 #@! TF.CreationDate,2019-09-04T17:21:52+01:00*
G04 #@! TF.ProjectId,optical_sensor_daughter_board,6f707469-6361-46c5-9f73-656e736f725f,rev?*
G04 #@! TF.SameCoordinates,Original*
G04 #@! TF.FileFunction,Copper,L2,Bot*
G04 #@! TF.FilePolarity,Positive*
%FSLAX46Y46*%
G04 Gerber Fmt 4.6, Leading zero omitted, Abs format (unit mm)*
G04 Created by KiCad (PCBNEW 5.1.4-e60b266~84~ubuntu18.04.1) date 2019-09-04 17:21:52*
%MOMM*%
%LPD*%
G04 APERTURE LIST*
%ADD10C,1.150000*%
%ADD11O,1.700000X1.700000*%
%ADD12R,1.700000X1.700000*%
%ADD13C,0.800000*%
%ADD14C,0.250000*%
G04 APERTURE END LIST*
D10*
X130200000Y-90660000D03*
X140900000Y-91550000D03*
X130200000Y-92440000D03*
X140900000Y-93330000D03*
X130200000Y-94220000D03*
X140900000Y-95110000D03*
X130200000Y-96000000D03*
X140900000Y-96890000D03*
X130200000Y-97780000D03*
X140900000Y-98670000D03*
X130200000Y-99560000D03*
X140900000Y-100450000D03*
X130200000Y-101340000D03*
X140900000Y-102230000D03*
X130200000Y-103120000D03*
X140900000Y-104010000D03*
D11*
X143950000Y-88245000D03*
X143950000Y-90785000D03*
X143950000Y-93325000D03*
X143950000Y-95865000D03*
X143950000Y-98405000D03*
X143950000Y-100945000D03*
X143950000Y-103485000D03*
D12*
X143950000Y-106025000D03*
D13*
X130066400Y-105422300D03*
X128797700Y-102015300D03*
X128909300Y-90585700D03*
X128775100Y-93580200D03*
X142228300Y-87428600D03*
X127600000Y-96793900D03*
X130391500Y-89103400D03*
X127755300Y-106840100D03*
X126255300Y-104983800D03*
X125475000Y-92871900D03*
X124240100Y-95661600D03*
X140587300Y-88032700D03*
X124256000Y-100253800D03*
X128574900Y-104181800D03*
D14*
X143950000Y-90785000D02*
X141665000Y-90785000D01*
X141665000Y-90785000D02*
X140900000Y-91550000D01*
X129300300Y-104656200D02*
X129300300Y-103880700D01*
X129300300Y-103880700D02*
X128797700Y-103378100D01*
X128797700Y-103378100D02*
X128797700Y-102015300D01*
X130066400Y-105422300D02*
X129300300Y-104656200D01*
X127600000Y-96793900D02*
X127600000Y-104279000D01*
X127600000Y-104279000D02*
X128241100Y-104920100D01*
X128241100Y-104920100D02*
X129036400Y-104920100D01*
X129036400Y-104920100D02*
X129300300Y-104656200D01*
X130391500Y-89103400D02*
X128909300Y-90585600D01*
X128909300Y-90585600D02*
X128909300Y-90585700D01*
X142228300Y-87428600D02*
X140553500Y-89103400D01*
X140553500Y-89103400D02*
X130391500Y-89103400D01*
X128775100Y-93580200D02*
X128775100Y-90719900D01*
X128775100Y-90719900D02*
X128909300Y-90585700D01*
X127600000Y-96793900D02*
X128775100Y-95618800D01*
X128775100Y-95618800D02*
X128775100Y-93580200D01*
X143950000Y-106025000D02*
X142774700Y-106025000D01*
X142774700Y-106025000D02*
X138116400Y-110683300D01*
X138116400Y-110683300D02*
X131598500Y-110683300D01*
X131598500Y-110683300D02*
X127755300Y-106840100D01*
X143950000Y-88245000D02*
X143950000Y-89420300D01*
X143950000Y-89420300D02*
X144317300Y-89420300D01*
X144317300Y-89420300D02*
X145139700Y-90242700D01*
X145139700Y-90242700D02*
X145139700Y-91265400D01*
X145139700Y-91265400D02*
X144350100Y-92055000D01*
X144350100Y-92055000D02*
X142175000Y-92055000D01*
X142175000Y-92055000D02*
X140900000Y-93330000D01*
X143950000Y-97040300D02*
X143582700Y-97040300D01*
X143582700Y-97040300D02*
X142221700Y-98401300D01*
X142221700Y-98401300D02*
X142221700Y-104919500D01*
X142221700Y-104919500D02*
X140037300Y-107103900D01*
X140037300Y-107103900D02*
X129681800Y-107103900D01*
X129681800Y-107103900D02*
X127561700Y-104983800D01*
X127561700Y-104983800D02*
X126255300Y-104983800D01*
X143950000Y-95865000D02*
X143950000Y-97040300D01*
X143950000Y-98405000D02*
X145590600Y-96764400D01*
X145590600Y-96764400D02*
X145590600Y-88203600D01*
X145590600Y-88203600D02*
X144087800Y-86700800D01*
X144087800Y-86700800D02*
X131032300Y-86700800D01*
X131032300Y-86700800D02*
X125475000Y-92258100D01*
X125475000Y-92258100D02*
X125475000Y-92871900D01*
X124240100Y-95661600D02*
X126981100Y-92920600D01*
X126981100Y-92920600D02*
X126981100Y-91433400D01*
X126981100Y-91433400D02*
X130381800Y-88032700D01*
X130381800Y-88032700D02*
X140587300Y-88032700D01*
X143950000Y-104660300D02*
X143117800Y-104660300D01*
X143117800Y-104660300D02*
X140223800Y-107554300D01*
X140223800Y-107554300D02*
X129495300Y-107554300D01*
X129495300Y-107554300D02*
X127840700Y-105899700D01*
X127840700Y-105899700D02*
X126134500Y-105899700D01*
X126134500Y-105899700D02*
X124256000Y-104021200D01*
X124256000Y-104021200D02*
X124256000Y-100253800D01*
X143950000Y-103485000D02*
X143950000Y-104660300D01*
X130200000Y-97780000D02*
X128072400Y-99907600D01*
X128072400Y-99907600D02*
X128072400Y-103679300D01*
X128072400Y-103679300D02*
X128574900Y-104181800D01*
M02*
