G04 #@! TF.GenerationSoftware,KiCad,Pcbnew,5.1.4-e60b266~84~ubuntu18.04.1*
G04 #@! TF.CreationDate,2019-09-04T17:21:52+01:00*
G04 #@! TF.ProjectId,optical_sensor_daughter_board,6f707469-6361-46c5-9f73-656e736f725f,rev?*
G04 #@! TF.SameCoordinates,Original*
G04 #@! TF.FileFunction,Legend,Top*
G04 #@! TF.FilePolarity,Positive*
%FSLAX46Y46*%
G04 Gerber Fmt 4.6, Leading zero omitted, Abs format (unit mm)*
G04 Created by KiCad (PCBNEW 5.1.4-e60b266~84~ubuntu18.04.1) date 2019-09-04 17:21:52*
%MOMM*%
%LPD*%
G04 APERTURE LIST*
%ADD10C,0.120000*%
%ADD11C,0.150000*%
G04 APERTURE END LIST*
D10*
X127475000Y-89365000D02*
X125025000Y-89365000D01*
X125675000Y-92585000D02*
X127475000Y-92585000D01*
X127400000Y-100865000D02*
X124950000Y-100865000D01*
X125600000Y-104085000D02*
X127400000Y-104085000D01*
X127400000Y-97065000D02*
X124950000Y-97065000D01*
X125600000Y-100285000D02*
X127400000Y-100285000D01*
X127425000Y-93215000D02*
X124975000Y-93215000D01*
X125625000Y-96435000D02*
X127425000Y-96435000D01*
X127500000Y-85590000D02*
X125050000Y-85590000D01*
X125700000Y-88810000D02*
X127500000Y-88810000D01*
X139850000Y-89530000D02*
X139850000Y-106790000D01*
X131250000Y-89530000D02*
X131250000Y-106790000D01*
X131250000Y-106790000D02*
X139850000Y-106790000D01*
X131250000Y-89530000D02*
X139850000Y-89530000D01*
X136251783Y-96770000D02*
G75*
G03X136251783Y-96770000I-701783J0D01*
G01*
X139450000Y-110785000D02*
X141900000Y-110785000D01*
X141250000Y-107565000D02*
X139450000Y-107565000D01*
X126478733Y-109760000D02*
X126821267Y-109760000D01*
X126478733Y-108740000D02*
X126821267Y-108740000D01*
X140840000Y-85053733D02*
X140840000Y-85396267D01*
X141860000Y-85053733D02*
X141860000Y-85396267D01*
X145280000Y-107355000D02*
X143950000Y-107355000D01*
X145280000Y-106025000D02*
X145280000Y-107355000D01*
X145280000Y-104755000D02*
X142620000Y-104755000D01*
X142620000Y-104755000D02*
X142620000Y-86915000D01*
X145280000Y-104755000D02*
X145280000Y-86915000D01*
X145280000Y-86915000D02*
X142620000Y-86915000D01*
X130203733Y-109685000D02*
X130546267Y-109685000D01*
X130203733Y-108665000D02*
X130546267Y-108665000D01*
X144103733Y-110560000D02*
X144446267Y-110560000D01*
X144103733Y-109540000D02*
X144446267Y-109540000D01*
X139040000Y-85053733D02*
X139040000Y-85396267D01*
X140060000Y-85053733D02*
X140060000Y-85396267D01*
X137165000Y-85078733D02*
X137165000Y-85421267D01*
X138185000Y-85078733D02*
X138185000Y-85421267D01*
D11*
X123352380Y-91736904D02*
X124161904Y-91736904D01*
X124257142Y-91689285D01*
X124304761Y-91641666D01*
X124352380Y-91546428D01*
X124352380Y-91355952D01*
X124304761Y-91260714D01*
X124257142Y-91213095D01*
X124161904Y-91165476D01*
X123352380Y-91165476D01*
X123352380Y-90784523D02*
X123352380Y-90117857D01*
X124352380Y-90546428D01*
X123277380Y-103136904D02*
X124086904Y-103136904D01*
X124182142Y-103089285D01*
X124229761Y-103041666D01*
X124277380Y-102946428D01*
X124277380Y-102755952D01*
X124229761Y-102660714D01*
X124182142Y-102613095D01*
X124086904Y-102565476D01*
X123277380Y-102565476D01*
X123277380Y-101660714D02*
X123277380Y-101851190D01*
X123325000Y-101946428D01*
X123372619Y-101994047D01*
X123515476Y-102089285D01*
X123705952Y-102136904D01*
X124086904Y-102136904D01*
X124182142Y-102089285D01*
X124229761Y-102041666D01*
X124277380Y-101946428D01*
X124277380Y-101755952D01*
X124229761Y-101660714D01*
X124182142Y-101613095D01*
X124086904Y-101565476D01*
X123848809Y-101565476D01*
X123753571Y-101613095D01*
X123705952Y-101660714D01*
X123658333Y-101755952D01*
X123658333Y-101946428D01*
X123705952Y-102041666D01*
X123753571Y-102089285D01*
X123848809Y-102136904D01*
X123327380Y-99636904D02*
X124136904Y-99636904D01*
X124232142Y-99589285D01*
X124279761Y-99541666D01*
X124327380Y-99446428D01*
X124327380Y-99255952D01*
X124279761Y-99160714D01*
X124232142Y-99113095D01*
X124136904Y-99065476D01*
X123327380Y-99065476D01*
X123327380Y-98113095D02*
X123327380Y-98589285D01*
X123803571Y-98636904D01*
X123755952Y-98589285D01*
X123708333Y-98494047D01*
X123708333Y-98255952D01*
X123755952Y-98160714D01*
X123803571Y-98113095D01*
X123898809Y-98065476D01*
X124136904Y-98065476D01*
X124232142Y-98113095D01*
X124279761Y-98160714D01*
X124327380Y-98255952D01*
X124327380Y-98494047D01*
X124279761Y-98589285D01*
X124232142Y-98636904D01*
X123302380Y-95661904D02*
X124111904Y-95661904D01*
X124207142Y-95614285D01*
X124254761Y-95566666D01*
X124302380Y-95471428D01*
X124302380Y-95280952D01*
X124254761Y-95185714D01*
X124207142Y-95138095D01*
X124111904Y-95090476D01*
X123302380Y-95090476D01*
X123635714Y-94185714D02*
X124302380Y-94185714D01*
X123254761Y-94423809D02*
X123969047Y-94661904D01*
X123969047Y-94042857D01*
X125838095Y-83752380D02*
X125838095Y-84561904D01*
X125885714Y-84657142D01*
X125933333Y-84704761D01*
X126028571Y-84752380D01*
X126219047Y-84752380D01*
X126314285Y-84704761D01*
X126361904Y-84657142D01*
X126409523Y-84561904D01*
X126409523Y-83752380D01*
X126790476Y-83752380D02*
X127409523Y-83752380D01*
X127076190Y-84133333D01*
X127219047Y-84133333D01*
X127314285Y-84180952D01*
X127361904Y-84228571D01*
X127409523Y-84323809D01*
X127409523Y-84561904D01*
X127361904Y-84657142D01*
X127314285Y-84704761D01*
X127219047Y-84752380D01*
X126933333Y-84752380D01*
X126838095Y-84704761D01*
X126790476Y-84657142D01*
X134613096Y-88227380D02*
X134613096Y-89036904D01*
X134660715Y-89132142D01*
X134708334Y-89179761D01*
X134803572Y-89227380D01*
X134994048Y-89227380D01*
X135089286Y-89179761D01*
X135136905Y-89132142D01*
X135184524Y-89036904D01*
X135184524Y-88227380D01*
X135613096Y-88322619D02*
X135660715Y-88275000D01*
X135755953Y-88227380D01*
X135994048Y-88227380D01*
X136089286Y-88275000D01*
X136136905Y-88322619D01*
X136184524Y-88417857D01*
X136184524Y-88513095D01*
X136136905Y-88655952D01*
X135565477Y-89227380D01*
X136184524Y-89227380D01*
X142863095Y-108527380D02*
X142863095Y-109336904D01*
X142910714Y-109432142D01*
X142958333Y-109479761D01*
X143053571Y-109527380D01*
X143244047Y-109527380D01*
X143339285Y-109479761D01*
X143386904Y-109432142D01*
X143434523Y-109336904D01*
X143434523Y-108527380D01*
X144434523Y-109527380D02*
X143863095Y-109527380D01*
X144148809Y-109527380D02*
X144148809Y-108527380D01*
X144053571Y-108670238D01*
X143958333Y-108765476D01*
X143863095Y-108813095D01*
X126483333Y-108272380D02*
X126150000Y-107796190D01*
X125911904Y-108272380D02*
X125911904Y-107272380D01*
X126292857Y-107272380D01*
X126388095Y-107320000D01*
X126435714Y-107367619D01*
X126483333Y-107462857D01*
X126483333Y-107605714D01*
X126435714Y-107700952D01*
X126388095Y-107748571D01*
X126292857Y-107796190D01*
X125911904Y-107796190D01*
X126864285Y-107367619D02*
X126911904Y-107320000D01*
X127007142Y-107272380D01*
X127245238Y-107272380D01*
X127340476Y-107320000D01*
X127388095Y-107367619D01*
X127435714Y-107462857D01*
X127435714Y-107558095D01*
X127388095Y-107700952D01*
X126816666Y-108272380D01*
X127435714Y-108272380D01*
X143232380Y-85391666D02*
X142756190Y-85725000D01*
X143232380Y-85963095D02*
X142232380Y-85963095D01*
X142232380Y-85582142D01*
X142280000Y-85486904D01*
X142327619Y-85439285D01*
X142422857Y-85391666D01*
X142565714Y-85391666D01*
X142660952Y-85439285D01*
X142708571Y-85486904D01*
X142756190Y-85582142D01*
X142756190Y-85963095D01*
X143232380Y-84439285D02*
X143232380Y-85010714D01*
X143232380Y-84725000D02*
X142232380Y-84725000D01*
X142375238Y-84820238D01*
X142470476Y-84915476D01*
X142518095Y-85010714D01*
X140941666Y-105752380D02*
X140941666Y-106466666D01*
X140894047Y-106609523D01*
X140798809Y-106704761D01*
X140655952Y-106752380D01*
X140560714Y-106752380D01*
X141941666Y-106752380D02*
X141370238Y-106752380D01*
X141655952Y-106752380D02*
X141655952Y-105752380D01*
X141560714Y-105895238D01*
X141465476Y-105990476D01*
X141370238Y-106038095D01*
X130208333Y-108102142D02*
X130160714Y-108149761D01*
X130017857Y-108197380D01*
X129922619Y-108197380D01*
X129779761Y-108149761D01*
X129684523Y-108054523D01*
X129636904Y-107959285D01*
X129589285Y-107768809D01*
X129589285Y-107625952D01*
X129636904Y-107435476D01*
X129684523Y-107340238D01*
X129779761Y-107245000D01*
X129922619Y-107197380D01*
X130017857Y-107197380D01*
X130160714Y-107245000D01*
X130208333Y-107292619D01*
X131065476Y-107530714D02*
X131065476Y-108197380D01*
X130827380Y-107149761D02*
X130589285Y-107864047D01*
X131208333Y-107864047D01*
X144108333Y-108977142D02*
X144060714Y-109024761D01*
X143917857Y-109072380D01*
X143822619Y-109072380D01*
X143679761Y-109024761D01*
X143584523Y-108929523D01*
X143536904Y-108834285D01*
X143489285Y-108643809D01*
X143489285Y-108500952D01*
X143536904Y-108310476D01*
X143584523Y-108215238D01*
X143679761Y-108120000D01*
X143822619Y-108072380D01*
X143917857Y-108072380D01*
X144060714Y-108120000D01*
X144108333Y-108167619D01*
X144441666Y-108072380D02*
X145060714Y-108072380D01*
X144727380Y-108453333D01*
X144870238Y-108453333D01*
X144965476Y-108500952D01*
X145013095Y-108548571D01*
X145060714Y-108643809D01*
X145060714Y-108881904D01*
X145013095Y-108977142D01*
X144965476Y-109024761D01*
X144870238Y-109072380D01*
X144584523Y-109072380D01*
X144489285Y-109024761D01*
X144441666Y-108977142D01*
X139583333Y-88282142D02*
X139535714Y-88329761D01*
X139392857Y-88377380D01*
X139297619Y-88377380D01*
X139154761Y-88329761D01*
X139059523Y-88234523D01*
X139011904Y-88139285D01*
X138964285Y-87948809D01*
X138964285Y-87805952D01*
X139011904Y-87615476D01*
X139059523Y-87520238D01*
X139154761Y-87425000D01*
X139297619Y-87377380D01*
X139392857Y-87377380D01*
X139535714Y-87425000D01*
X139583333Y-87472619D01*
X139964285Y-87472619D02*
X140011904Y-87425000D01*
X140107142Y-87377380D01*
X140345238Y-87377380D01*
X140440476Y-87425000D01*
X140488095Y-87472619D01*
X140535714Y-87567857D01*
X140535714Y-87663095D01*
X140488095Y-87805952D01*
X139916666Y-88377380D01*
X140535714Y-88377380D01*
X137458333Y-88232142D02*
X137410714Y-88279761D01*
X137267857Y-88327380D01*
X137172619Y-88327380D01*
X137029761Y-88279761D01*
X136934523Y-88184523D01*
X136886904Y-88089285D01*
X136839285Y-87898809D01*
X136839285Y-87755952D01*
X136886904Y-87565476D01*
X136934523Y-87470238D01*
X137029761Y-87375000D01*
X137172619Y-87327380D01*
X137267857Y-87327380D01*
X137410714Y-87375000D01*
X137458333Y-87422619D01*
X138410714Y-88327380D02*
X137839285Y-88327380D01*
X138125000Y-88327380D02*
X138125000Y-87327380D01*
X138029761Y-87470238D01*
X137934523Y-87565476D01*
X137839285Y-87613095D01*
M02*
